<svg xmlns="http://www.w3.org/2000/svg" fill="none" viewBox="0 0 36 36">
  <path fill="#4F89FF" fill-rule="evenodd" d="m29.53 21.14.276-2.557c.147-1.364.243-2.265.167-2.833a2.245 2.245 0 0 1-1.676-.78c-.49.302-1.129.94-2.091 1.898-.742.738-1.113 1.108-1.526 1.165-.23.032-.463-.001-.674-.094-.382-.168-.637-.625-1.146-1.538l-2.684-4.813a35.413 35.413 0 0 0-.814-1.414A2.988 2.988 0 0 1 18 10.5c-.49 0-.953-.117-1.362-.326-.237.38-.5.85-.814 1.414l-2.684 4.813c-.51.913-.764 1.37-1.146 1.538a1.248 1.248 0 0 1-.674.094c-.414-.057-.784-.427-1.526-1.165-.962-.959-1.602-1.596-2.09-1.898a2.245 2.245 0 0 1-1.677.78c-.076.568.02 1.468.167 2.833l.275 2.557c.047.431.09.857.134 1.274.378 3.653.691 6.676 1.965 7.816 1.42 1.27 3.546 1.27 7.8 1.27h3.264c4.254 0 6.38 0 7.8-1.27 1.274-1.14 1.587-4.163 1.965-7.816.043-.417.087-.843.134-1.274Z" clip-rule="evenodd" opacity=".5"/>
  <path fill="#4F89FF" d="M30 15.75a2.25 2.25 0 1 0-.027 0H30ZM18 4.5a3 3 0 1 0 0 6 3 3 0 0 0 0-6ZM3.75 13.5A2.25 2.25 0 0 0 6 15.75h.027a2.245 2.245 0 0 0 1.676-.78A2.25 2.25 0 1 0 3.75 13.5ZM7.273 27.375a26.68 26.68 0 0 1-.369-2.25h22.192a26.703 26.703 0 0 1-.37 2.25H7.274Z"/>
</svg>