<svg xmlns="http://www.w3.org/2000/svg" fill="none" viewBox="0 0 65 64">
  <path fill="#FF42AC" fill-rule="evenodd" d="M16.177 7.677c-2.343 2.343-2.343 6.114-2.343 13.656v21.334c0 7.542 0 11.313 2.343 13.657 2.343 2.343 6.114 2.343 13.657 2.343h5.333c7.543 0 11.314 0 13.657-2.343 2.343-2.344 2.343-6.115 2.343-13.657V21.333c0-7.542 0-11.313-2.343-13.656-2.343-2.344-6.114-2.344-13.657-2.344h-5.333c-7.543 0-11.314 0-13.657 2.344Zm6.324 37.656a2 2 0 0 1 2-2h8a2 2 0 0 1 0 4h-8a2 2 0 0 1-2-2Zm2-12.666a2 2 0 0 0 0 4h16a2 2 0 0 0 0-4h-16ZM22.5 24a2 2 0 0 1 2-2h16a2 2 0 0 1 0 4h-16a2 2 0 0 1-2-2Z" clip-rule="evenodd"/>
  <path fill="#FF42AC" d="M14.461 10.822c-.627 2.355-.627 5.65-.627 10.511v21.333c0 4.862 0 8.156.627 10.512l-.627-.048c-2.6-.256-4.35-.834-5.657-2.14-2.343-2.343-2.343-6.114-2.343-13.657V26.667c0-7.543 0-11.314 2.343-13.657 1.306-1.307 3.057-1.885 5.657-2.14l.627-.048ZM50.54 53.178c.627-2.356.627-5.65.627-10.512V21.333c0-4.861 0-8.156-.628-10.511l.627.047c2.6.256 4.351.834 5.657 2.14 2.343 2.344 2.343 6.115 2.343 13.657v10.667c0 7.543 0 11.314-2.343 13.657-1.306 1.306-3.056 1.884-5.657 2.14l-.627.048Z" opacity=".5"/>
</svg>