<svg xmlns="http://www.w3.org/2000/svg" fill="none" viewBox="0 0 65 64">
  <path fill="#3478FF" d="m54.552 43.373 1.882-10.88c.47-2.716-1.62-5.202-4.375-5.202H38.243a2.221 2.221 0 0 1-2.19-2.582l1.767-10.785a12.75 12.75 0 0 0-.24-5.264c-.37-1.424-1.469-2.567-2.913-3.03l-.387-.125a3.589 3.589 0 0 0-2.649.181 3.371 3.371 0 0 0-1.814 2.18l-1.269 4.89a20.338 20.338 0 0 1-1.75 4.478c-1.107 2.073-2.82 3.733-4.6 5.267l-3.836 3.306a4.447 4.447 0 0 0-1.527 3.751L19 54.606a4.441 4.441 0 0 0 4.423 4.06H35.82c9.283 0 17.206-6.468 18.732-15.293Z"/>
  <path fill="#3478FF" fill-rule="evenodd" d="M8.414 25.294a2 2 0 0 1 2.079 1.825l2.59 29.964a3.299 3.299 0 1 1-6.583.285V27.292a2 2 0 0 1 1.914-1.998Z" clip-rule="evenodd" opacity=".5"/>
</svg>