<svg xmlns="http://www.w3.org/2000/svg" fill="none" viewBox="0 0 100 100">
  <circle cx="50" cy="50" r="50" fill="#fff" opacity=".76"/>
  <path fill="currentColor" fill-rule="evenodd" d="M32.125 35.597c0-3.367 2.742-6.097 6.125-6.097s6.125 2.73 6.125 6.097v29.806c0 3.367-2.742 6.097-6.125 6.097s-6.125-2.73-6.125-6.097V35.597Zm6.125-2.032c-1.128 0-2.042.91-2.042 2.032v29.806c0 1.123.914 2.032 2.042 2.032 1.128 0 2.042-.91 2.042-2.032V35.597a2.037 2.037 0 0 0-2.042-2.032Zm18.375 2.032c0-3.367 2.742-6.097 6.125-6.097s6.125 2.73 6.125 6.097v29.806c0 3.367-2.742 6.097-6.125 6.097s-6.125-2.73-6.125-6.097V35.597Zm6.125-2.032c-1.128 0-2.042.91-2.042 2.032v29.806c0 1.123.914 2.032 2.042 2.032 1.128 0 2.042-.91 2.042-2.032V35.597a2.037 2.037 0 0 0-2.042-2.032Z" clip-rule="evenodd"/>
  <path fill="currentColor" d="M36.208 35.597c0-1.123.914-2.032 2.042-2.032 1.128 0 2.042.91 2.042 2.032v29.806a2.037 2.037 0 0 1-2.042 2.032 2.037 2.037 0 0 1-2.042-2.032V35.597ZM60.708 35.597c0-1.123.914-2.032 2.042-2.032 1.128 0 2.042.91 2.042 2.032v29.806a2.037 2.037 0 0 1-2.042 2.032 2.037 2.037 0 0 1-2.042-2.032V35.597Z"/>
</svg>