<svg xmlns="http://www.w3.org/2000/svg" fill="none" viewBox="0 0 65 64">
  <path fill="#FF7E46" d="M56.096 23.235c4.095-4.095 4.095-10.735 0-14.83C52 4.31 45.36 4.31 41.266 8.405L38.9 10.77l.101.298c.867 2.499 2.503 5.775 5.58 8.852 3.078 3.077 6.354 4.713 8.853 5.58.1.035.199.069.296.1l2.366-2.365Z" opacity=".5"/>
  <path fill="#FF7E46" d="m39.004 10.667-.102.101.1.298c.867 2.499 2.503 5.775 5.58 8.852 3.078 3.078 6.354 4.714 8.853 5.58l.294.1L30.9 48.426c-1.539 1.539-2.309 2.309-3.157 2.97a17.48 17.48 0 0 1-3.23 1.997c-.971.463-2.004.807-4.069 1.495l-10.889 3.63A2.828 2.828 0 0 1 5.98 54.94l3.63-10.89c.688-2.064 1.032-3.097 1.495-4.068a17.489 17.489 0 0 1 1.996-3.23c.662-.848 1.432-1.618 2.97-3.157l22.934-22.93Z"/>
</svg>