<svg xmlns="http://www.w3.org/2000/svg" fill="none" viewBox="0 0 32 32">
  <path fill="currentColor" fill-rule="evenodd" d="M16 4c.389 0 .744.21.918.54l3.564 6.802 7.972 1.098c.387.053.709.31.829.664.12.353.018.74-.263.998l-5.764 5.29 1.36 7.47a.95.95 0 0 1-.406.951 1.072 1.072 0 0 1-1.08.077L16 24.356 8.867 27.89a1.072 1.072 0 0 1-1.08-.077.95.95 0 0 1-.405-.952l1.36-7.47-5.764-5.289a.939.939 0 0 1-.263-.998c.12-.353.441-.61.828-.664l7.973-1.098 3.564-6.802c.173-.33.529-.54.918-.54Zm0 3.159-2.885 5.506c-.15.286-.438.484-.771.53l-6.438.886 4.653 4.27a.943.943 0 0 1 .297.864l-1.1 6.039 5.768-2.858c.298-.147.653-.147.95 0l5.768 2.858-1.1-6.039a.943.943 0 0 1 .298-.865l4.653-4.27-6.438-.886a1.023 1.023 0 0 1-.771-.53L15.999 7.16Z" clip-rule="evenodd"/>
  <path fill="currentColor" d="m13.115 12.665 2.884-5.506 2.885 5.506c.15.286.438.484.771.53l6.438.886-4.653 4.27a.943.943 0 0 0-.298.864l1.1 6.039-5.768-2.858a1.076 1.076 0 0 0-.95 0l-5.767 2.858 1.1-6.039a.943.943 0 0 0-.298-.865l-4.653-4.27 6.438-.886c.333-.045.62-.243.77-.53Z"/>
</svg>