<svg xmlns="http://www.w3.org/2000/svg" fill="none" viewBox="0 0 328 243">
  <g clip-path="url(#a)">
    <path fill="#1E1E1E" d="m227.947 79.04-.983 1.53-3.98-2.527-4.654 7.243-1.861-1.181 5.636-8.772 5.842 3.707Zm-3.575 10.255a3.253 3.253 0 0 1-.986-.933 2.133 2.133 0 0 1-.361-1.151c-.002-.412.136-.834.415-1.268.235-.366.5-.63.794-.793.294-.163.606-.246.936-.25.329-.005.666.049 1.011.159.347.112.694.256 1.041.432.41.204.743.363 1 .478.259.112.465.166.616.162a.428.428 0 0 0 .363-.216l.017-.026c.174-.271.223-.536.146-.793-.073-.256-.266-.483-.579-.681-.329-.21-.638-.303-.927-.281-.286.019-.531.117-.733.294l-1.606-1.212a2.745 2.745 0 0 1 1.173-.715 2.908 2.908 0 0 1 1.411-.057c.504.095 1.02.31 1.547.644.367.233.69.499.97.797.284.3.498.623.643.968.148.348.207.71.177 1.09-.028.376-.167.76-.419 1.15l-2.851 4.438-1.737-1.102.587-.912-.052-.033c-.238.138-.496.23-.775.274a2.346 2.346 0 0 1-.874-.043 3.141 3.141 0 0 1-.947-.42Zm1.334-.926c.269.171.541.27.815.294.276.023.532-.02.766-.128.235-.108.427-.278.576-.51l.448-.697c-.081 0-.182-.015-.302-.048a4.946 4.946 0 0 1-.383-.128 19.683 19.683 0 0 1-.411-.17l-.366-.166a2.695 2.695 0 0 0-.659-.208 1.074 1.074 0 0 0-.553.041.812.812 0 0 0-.409.344c-.159.248-.191.496-.095.741.101.245.292.457.573.635Zm2.299 6.53 5.813-9.045L235.623 87l-.71 1.105.082.052c.194-.126.426-.233.695-.32.274-.087.574-.113.899-.08.33.033.68.166 1.05.401.481.306.844.713 1.09 1.223.247.506.331 1.088.252 1.745-.078.654-.359 1.359-.843 2.112-.472.734-.989 1.278-1.551 1.633-.558.353-1.124.53-1.698.532a2.94 2.94 0 0 1-1.606-.476c-.355-.226-.62-.476-.794-.752a2.212 2.212 0 0 1-.323-.825 2.619 2.619 0 0 1-.011-.773l-.056-.036-2.263 3.52-1.831-1.161Zm5.492-4.618a3.475 3.475 0 0 0-.495 1.127c-.078.36-.066.688.036.981.103.291.303.53.598.718.298.189.602.267.913.236a1.82 1.82 0 0 0 .909-.389c.298-.224.57-.528.816-.91.244-.38.405-.748.485-1.104.079-.356.068-.68-.034-.974-.102-.294-.303-.536-.604-.727-.298-.19-.601-.27-.908-.245-.304.028-.604.152-.898.371-.294.22-.567.525-.818.916Zm5.556 8.332a3.249 3.249 0 0 1-.985-.933 2.126 2.126 0 0 1-.362-1.152c-.002-.411.137-.834.416-1.268.235-.365.499-.63.793-.793.295-.162.607-.246.936-.25.329-.004.666.05 1.011.16a7.16 7.16 0 0 1 1.042.431c.409.204.743.363 1 .478.259.112.464.166.616.162a.428.428 0 0 0 .363-.216l.016-.026c.174-.27.223-.535.147-.793-.074-.256-.267-.483-.579-.68-.33-.21-.639-.304-.927-.282-.287.02-.531.117-.734.294l-1.605-1.212a2.74 2.74 0 0 1 1.173-.714 2.903 2.903 0 0 1 1.41-.058c.504.095 1.02.31 1.547.645.367.232.691.498.971.796.283.3.497.623.642.969.148.347.207.71.178 1.09-.028.375-.168.76-.419 1.15l-2.852 4.437-1.736-1.102.586-.912-.052-.033a2.22 2.22 0 0 1-.775.274 2.349 2.349 0 0 1-.874-.042 3.155 3.155 0 0 1-.947-.42Zm1.334-.926c.269.17.541.269.815.294.276.022.532-.02.767-.129.235-.108.426-.278.575-.509l.449-.698c-.081 0-.182-.015-.303-.047a5.143 5.143 0 0 1-.383-.129 19.153 19.153 0 0 1-.411-.17 70.605 70.605 0 0 0-.366-.166 2.683 2.683 0 0 0-.659-.207 1.076 1.076 0 0 0-.553.04.81.81 0 0 0-.408.344c-.16.249-.192.496-.096.742.101.245.292.456.573.635Zm11.062 2.962-.922 1.435-3.448-2.188.922-1.435 3.448 2.188Zm-1.2-4.367-4.228 6.578-1.749-1.11 4.227-6.579 1.75 1.11Zm3.993 2.534-4.227 6.579-1.737-1.102 4.228-6.58 1.736 1.103Zm-.164 1.916.922-1.435 5.983 3.797-.922 1.435-2.127-1.35-3.306 5.143-1.745-1.107 3.305-5.144-2.11-1.339Zm7.084 8.349 5.058-2.663 1.805 1.145-4.227 6.579-1.745-1.108 2.689-4.184-5.058 2.681-1.818-1.154 4.227-6.578 1.75 1.11-2.681 4.172Zm2.518 8.46 5.813-9.046 1.805 1.146-.71 1.105.082.052a2.85 2.85 0 0 1 .695-.319c.274-.088.574-.114.899-.081.33.033.68.166 1.05.401.481.306.845.713 1.09 1.223.247.506.331 1.088.252 1.745-.078.655-.359 1.359-.843 2.112-.472.734-.989 1.278-1.551 1.633-.558.353-1.124.531-1.698.532a2.94 2.94 0 0 1-1.606-.476c-.355-.226-.62-.476-.794-.752a2.205 2.205 0 0 1-.323-.825 2.618 2.618 0 0 1-.011-.773l-.056-.036-2.262 3.521-1.832-1.162Zm5.492-4.619c-.251.391-.416.767-.495 1.127-.078.36-.066.688.036.981.103.291.303.53.598.717.298.19.602.268.913.236.313-.034.616-.164.909-.387.298-.225.57-.529.816-.912.244-.38.405-.747.485-1.103a1.76 1.76 0 0 0-.034-.974c-.102-.294-.303-.536-.604-.727-.298-.189-.601-.271-.908-.245-.304.028-.604.152-.898.371-.294.219-.567.525-.818.916Zm6.654 9.035c-.668-.424-1.154-.932-1.46-1.524a3.417 3.417 0 0 1-.356-1.902c.064-.679.313-1.355.746-2.029.437-.679.95-1.19 1.541-1.531a3.44 3.44 0 0 1 1.887-.478c.67.023 1.339.247 2.007.671.668.424 1.152.932 1.453 1.525.305.592.426 1.227.361 1.905-.063.676-.313 1.353-.749 2.033-.434.674-.946 1.183-1.538 1.526-.59.341-1.221.5-1.891.476-.666-.024-1.333-.249-2.001-.672Zm.917-1.408c.304.192.612.268.926.226.315-.046.621-.185.917-.42.298-.232.571-.54.817-.922a3.65 3.65 0 0 0 .498-1.125c.09-.365.089-.699-.003-1.003-.091-.303-.289-.551-.593-.744-.306-.194-.62-.271-.941-.23a1.938 1.938 0 0 0-.926.414 3.752 3.752 0 0 0-.812.925 3.725 3.725 0 0 0-.503 1.122c-.087.367-.083.704.011 1.009.099.304.302.553.609.748Zm3.606 4.097 4.227-6.579 2.816 1.787c.814.517 1.358 1.079 1.633 1.688.274.608.229 1.197-.136 1.765a1.366 1.366 0 0 1-.972.637c-.419.068-.891-.007-1.417-.224.377.279.656.583.836.911.186.326.275.655.269.984a1.712 1.712 0 0 1-.283.93c-.24.374-.547.632-.92.773-.37.143-.793.164-1.269.063-.473-.099-.984-.323-1.534-.673l-3.25-2.062Zm2.584-.283 1.544.979c.255.162.492.229.713.2a.746.746 0 0 0 .541-.362c.15-.235.196-.465.136-.692-.057-.225-.213-.419-.468-.581l-1.544-.979-.922 1.435Zm1.61-2.506 1.148.729c.184.116.356.19.518.22a.791.791 0 0 0 .45-.04.715.715 0 0 0 .336-.288.649.649 0 0 0 .06-.631c-.09-.217-.277-.416-.56-.596l-1.109-.704-.843 1.31Zm4.583 8.534a3.245 3.245 0 0 1-.986-.933 2.13 2.13 0 0 1-.361-1.152c-.002-.411.137-.834.415-1.268.235-.365.5-.629.794-.792.295-.163.606-.247.936-.251a3.19 3.19 0 0 1 1.011.16c.347.112.695.256 1.041.432.41.203.743.363 1 .478.259.112.465.166.617.161a.428.428 0 0 0 .362-.216l.017-.025c.174-.271.223-.536.146-.794-.073-.255-.266-.482-.579-.681-.329-.209-.638-.302-.927-.28a1.202 1.202 0 0 0-.733.294l-1.606-1.212a2.753 2.753 0 0 1 1.174-.715 2.9 2.9 0 0 1 1.41-.057c.504.095 1.02.309 1.547.644.367.233.69.498.971.797.283.3.497.623.642.968.148.347.207.711.177 1.09-.028.376-.167.76-.419 1.151l-2.851 4.437-1.736-1.102.586-.913-.052-.032a2.241 2.241 0 0 1-.775.274 2.35 2.35 0 0 1-.874-.043 3.112 3.112 0 0 1-.947-.42Zm1.334-.926c.269.171.541.269.815.294.276.023.532-.02.767-.128.234-.108.426-.278.575-.509l.448-.699a1.162 1.162 0 0 1-.302-.047 5.054 5.054 0 0 1-.383-.128 25.262 25.262 0 0 1-.411-.171l-.366-.166a2.68 2.68 0 0 0-.659-.207 1.075 1.075 0 0 0-.553.041.814.814 0 0 0-.409.344c-.159.248-.191.495-.095.741.101.245.292.457.573.635Zm11.061 2.962-.922 1.435-3.447-2.188.922-1.435 3.447 2.188Zm-1.199-4.367-4.228 6.579-1.749-1.111 4.227-6.578 1.75 1.11Zm3.993 2.534-4.228 6.579-1.736-1.102 4.227-6.579 1.737 1.102Zm4.37 6.379-.922 1.435-3.448-2.188.922-1.434 3.448 2.187Zm-1.2-4.367-4.227 6.579-1.75-1.11 4.228-6.579 1.749 1.11Zm3.993 2.535-4.227 6.578-1.737-1.102 4.228-6.578 1.736 1.102Zm.094 9.502c-.668-.424-1.154-.932-1.46-1.524a3.426 3.426 0 0 1-.357-1.902c.065-.679.314-1.355.747-2.029.437-.679.95-1.19 1.541-1.531a3.44 3.44 0 0 1 1.887-.478c.67.023 1.339.247 2.007.671.668.424 1.152.932 1.453 1.525.305.592.426 1.227.361 1.905-.063.676-.313 1.353-.75 2.033-.433.674-.945 1.183-1.537 1.526-.59.341-1.221.5-1.891.476-.666-.024-1.333-.249-2.001-.672Zm.917-1.408c.304.192.612.268.926.226.315-.046.621-.185.917-.42.298-.232.571-.54.817-.922a3.65 3.65 0 0 0 .498-1.125c.09-.365.089-.699-.003-1.003-.091-.303-.289-.551-.593-.744-.306-.194-.62-.271-.941-.23a1.938 1.938 0 0 0-.926.414 3.752 3.752 0 0 0-.812.925 3.725 3.725 0 0 0-.503 1.122c-.087.367-.083.704.011 1.009.099.304.302.553.609.748ZM33.884 46.06l-.644-1.924 9.072-3.006.643 1.924-3.381 1.12 3.047 9.113-2.309.765-3.047-9.112-3.381 1.12Zm13.092-.585 2.476-.82c1.096-.364 2.04-.385 2.83-.064.789.317 1.33.912 1.621 1.785.19.567.219 1.113.086 1.635-.134.52-.421.986-.862 1.4-.442.41-1.028.735-1.758.977l-3.916 1.297-2.768-8.276 2.196-.728 2.164 6.472 1.72-.57c.385-.128.669-.33.852-.606a.966.966 0 0 0 .129-.868 1.031 1.031 0 0 0-.639-.657c-.316-.122-.667-.12-1.052.008l-2.475.82-.604-1.805Zm8.772 3.462-2.767-8.277 2.297-.761 2.768 8.276-2.298.762Zm7.931-2.449c-.848.282-1.638.344-2.37.187a3.857 3.857 0 0 1-1.906-1.044c-.539-.536-.948-1.222-1.228-2.06-.284-.847-.369-1.645-.255-2.393.115-.752.417-1.41.905-1.97.486-.564 1.148-.985 1.986-1.262.723-.24 1.4-.318 2.03-.236.63.082 1.183.308 1.658.678.475.369.836.868 1.082 1.497l-2.168.718c-.2-.393-.472-.672-.819-.836-.344-.17-.727-.184-1.147-.045a1.62 1.62 0 0 0-.836.6c-.199.278-.31.624-.335 1.04-.025.414.05.883.223 1.404.177.528.4.953.667 1.275.27.321.572.535.903.64.33.107.674.1 1.03-.018.263-.086.48-.218.653-.395.176-.178.298-.392.366-.642.07-.255.079-.535.025-.84l2.168-.72c.175.645.189 1.26.04 1.843a3.281 3.281 0 0 1-.892 1.54c-.45.449-1.043.795-1.78 1.04Zm9.971-3.483-2.166-6.477-1.553.514c-.42.14-.708.343-.862.61-.155.266-.186.532-.094.797.087.27.268.464.542.58.277.112.624.099 1.041-.04l2.341-.775.519 1.552-2.34.775c-.71.235-1.358.33-1.948.287-.59-.045-1.09-.212-1.498-.504-.41-.295-.7-.7-.868-1.215-.184-.537-.203-1.056-.058-1.554.143-.503.438-.954.883-1.353.448-.404 1.029-.723 1.74-.96l3.695-1.223 2.768 8.276-2.142.71Zm-5.264 1.744.862-5.074 2.195-.727-.856 5.072-2.2.73ZM82 31.045l2.767 8.276-2.179.723-2.767-8.277 2.179-.722Zm.151 3.984.606 1.81c-.15.138-.344.286-.582.444a8.38 8.38 0 0 1-.77.441 5.76 5.76 0 0 1-.787.333c-1.19.394-2.209.46-3.055.198-.848-.266-1.452-.938-1.812-2.015l-.945-2.824 2.169-.718.944 2.823c.107.32.245.555.416.706.174.15.395.227.663.23.271-.002.61-.07 1.016-.205a5.486 5.486 0 0 0 1.072-.487c.336-.2.692-.445 1.066-.736Zm5.583-.054 1.227-6.237 2.265-.75 2.768 8.276-2.19.726-1.76-5.265-1.212 6.25-2.28.755-2.769-8.276 2.196-.728 1.755 5.249Zm14.032-1.113c-.529.176-1.031.24-1.505.194a2.406 2.406 0 0 1-1.258-.5c-.36-.287-.63-.704-.813-1.25-.154-.46-.199-.874-.134-1.242.064-.37.21-.697.438-.984.228-.287.51-.54.848-.76.342-.22.711-.419 1.107-.594.465-.21.838-.385 1.119-.526.279-.145.47-.284.573-.418a.473.473 0 0 0 .066-.464l-.011-.033c-.114-.341-.31-.57-.588-.685-.275-.116-.608-.11-1 .02-.413.137-.712.338-.895.602-.184.26-.27.54-.258.84l-2.183.532a3.03 3.03 0 0 1 .2-1.515c.193-.475.506-.894.94-1.257.436-.368.985-.662 1.647-.881a5.58 5.58 0 0 1 1.375-.276c.46-.033.892.01 1.295.127.406.117.764.322 1.074.614.308.29.544.68.709 1.172l1.867 5.582-2.179.722-.384-1.147-.065.021c-.046.303-.148.59-.305.861a2.6 2.6 0 0 1-.65.725c-.277.211-.62.385-1.03.52Zm.128-1.802c.338-.112.614-.277.829-.496a1.66 1.66 0 0 0 .425-.751 1.49 1.49 0 0 0-.04-.855l-.294-.878a1.27 1.27 0 0 1-.253.227c-.11.077-.237.157-.381.24-.145.08-.291.158-.437.235l-.401.198c-.256.13-.471.27-.643.423a1.18 1.18 0 0 0-.352.506.895.895 0 0 0 .013.594c.104.313.297.514.579.604.284.086.603.07.955-.047Zm10.343-7.455.603 1.805-4.325 1.433-.604-1.805 4.326-1.433Zm-4.648-2.04 2.767 8.277-2.195.728-2.767-8.277 2.195-.727Zm5.01-1.66 2.768 8.277-2.179.722-2.768-8.277 2.179-.722Zm4.55 7.686-2.767-8.276 2.297-.762 1.074 3.212.647-.215 1.181-3.958 2.697-.894-1.556 5.077 4.356 3.19-2.729.904-3.026-2.26-.858.284.982 2.937-2.298.761Zm12.388-3.925c-.852.283-1.643.353-2.374.212a3.75 3.75 0 0 1-1.906-1.008c-.545-.53-.963-1.231-1.255-2.104-.285-.852-.369-1.654-.254-2.406a3.847 3.847 0 0 1 .895-1.967c.484-.559 1.132-.973 1.944-1.243a4.564 4.564 0 0 1 1.615-.241 3.583 3.583 0 0 1 1.502.37c.472.23.896.577 1.27 1.04.373.459.678 1.04.913 1.744l.211.63-6.995 2.319-.476-1.423 4.832-1.601c-.11-.33-.28-.6-.509-.807a1.631 1.631 0 0 0-.799-.4 1.802 1.802 0 0 0-.953.07 1.852 1.852 0 0 0-.846.55 1.78 1.78 0 0 0-.412.849c-.062.316-.04.638.066.966l.452 1.352c.137.41.331.739.582.987.254.247.548.405.883.473.334.07.694.04 1.079-.088.255-.084.477-.198.665-.34a1.47 1.47 0 0 0 .605-1.146l2.172-.564a3.045 3.045 0 0 1-.217 1.556c-.204.487-.534.923-.988 1.309-.451.381-1.019.685-1.702.911Zm2.444-8.178-.603-1.805 7.507-2.488.604 1.805-2.67.885 2.164 6.472-2.189.725-2.164-6.472-2.649.878ZM67.245 133.8l.924 10.14-2.119.191-.766-8.397-4.1.369.766 8.397-2.12.191-.924-10.139 8.339-.752Zm3.186 12.811-.954-10.457 2.08-.187.117 1.277.094-.008c.073-.213.188-.433.344-.66.158-.231.373-.43.644-.598.274-.171.624-.275 1.05-.314.554-.05 1.08.049 1.575.297.495.245.909.646 1.242 1.201.334.553.54 1.264.62 2.136.077.848.005 1.577-.216 2.186-.217.605-.547 1.079-.988 1.422a2.855 2.855 0 0 1-1.524.586c-.41.037-.764.001-1.064-.109a2.15 2.15 0 0 1-.744-.447 2.58 2.58 0 0 1-.473-.591l-.065.006.371 4.07-2.11.19Zm1.458-6.84c.041.452.14.84.296 1.166.156.325.362.571.616.738.255.163.552.23.892.199.344-.031.625-.151.846-.361.22-.213.376-.493.467-.841a3.39 3.39 0 0 0 .082-1.19 3.376 3.376 0 0 0-.29-1.142 1.74 1.74 0 0 0-.61-.734c-.255-.166-.556-.234-.903-.203-.343.031-.625.148-.846.351-.218.203-.374.477-.47.821-.094.345-.121.743-.08 1.196Zm10.555 3.031c-.769.07-1.449-.034-2.04-.31-.588-.28-1.06-.7-1.418-1.26-.357-.563-.572-1.235-.643-2.013-.071-.786.018-1.486.268-2.101a3.325 3.325 0 0 1 1.167-1.493c.531-.381 1.181-.606 1.95-.675.77-.069 1.448.036 2.036.316a3.324 3.324 0 0 1 1.423 1.259c.357.56.571 1.233.643 2.019.071.778-.018 1.477-.268 2.095a3.356 3.356 0 0 1-1.172 1.494c-.528.377-1.177.6-1.946.669Zm-.139-1.634c.35-.032.633-.157.85-.377.216-.222.367-.512.454-.869a3.56 3.56 0 0 0 .076-1.2 3.57 3.57 0 0 0-.291-1.167 1.85 1.85 0 0 0-.605-.774c-.253-.18-.554-.254-.904-.223-.353.032-.641.159-.864.382-.22.223-.374.513-.465.871a3.65 3.65 0 0 0-.07 1.199c.04.443.136.832.286 1.168.154.335.359.593.615.773.259.176.565.248.918.217Zm5.24 1.025-.693-7.605 3.243-.293c.938-.084 1.695.027 2.272.335.578.307.896.789.956 1.446.038.413-.084.77-.367 1.071-.282.302-.69.525-1.227.67.46-.008.856.061 1.193.207.339.142.605.343.798.602.197.258.31.554.34.888.04.432-.041.814-.244 1.145-.2.331-.513.598-.94.803-.424.205-.953.336-1.587.393l-3.743.338Zm1.822-1.757 1.778-.16c.294-.027.517-.117.67-.27a.72.72 0 0 0 .199-.602c-.025-.271-.128-.476-.31-.616-.18-.141-.416-.197-.71-.171l-1.778.16.151 1.659Zm-.264-2.896 1.322-.12c.212-.019.389-.065.532-.137a.76.76 0 0 0 .322-.299.691.691 0 0 0 .087-.422.638.638 0 0 0-.333-.524c-.2-.115-.464-.158-.79-.129l-1.278.116.138 1.515Zm9.956 3.764c-.782.071-1.47-.027-2.063-.293a3.27 3.27 0 0 1-1.421-1.24c-.358-.56-.573-1.241-.646-2.043-.071-.782.018-1.482.268-2.101a3.379 3.379 0 0 1 1.156-1.497c.525-.38 1.16-.603 1.906-.671a3.986 3.986 0 0 1 1.423.117c.45.119.852.324 1.205.615.356.291.646.67.872 1.139.226.466.368 1.022.427 1.669l.053.579-6.422.579-.12-1.307 4.437-.4a1.625 1.625 0 0 0-.272-.789 1.43 1.43 0 0 0-.6-.5 1.577 1.577 0 0 0-.825-.13c-.32.029-.597.129-.831.299a1.571 1.571 0 0 0-.52.641 1.67 1.67 0 0 0-.14.836l.114 1.243c.034.376.133.695.297.957.167.261.386.454.657.579.27.126.583.173.936.141.235-.021.446-.074.635-.157.189-.084.346-.198.473-.343.126-.144.217-.315.273-.513l1.962-.047a2.667 2.667 0 0 1-.497 1.282c-.272.374-.64.68-1.104.919-.462.234-1.006.38-1.633.436Zm5.114 2.265-.954-10.457 2.08-.187.117 1.277.094-.009c.073-.213.188-.433.344-.66.158-.23.373-.429.644-.597.274-.171.624-.276 1.05-.314a2.877 2.877 0 0 1 1.575.297c.495.245.909.645 1.242 1.201.334.552.54 1.264.619 2.136.078.848.006 1.577-.215 2.185-.217.606-.547 1.08-.988 1.422a2.86 2.86 0 0 1-1.524.587c-.41.037-.764.001-1.064-.109a2.147 2.147 0 0 1-.744-.447 2.568 2.568 0 0 1-.473-.591l-.065.006.371 4.07-2.109.19Zm1.458-6.841c.041.453.14.841.296 1.167.156.325.362.571.616.738.255.163.552.23.892.199.344-.031.625-.151.846-.361a1.76 1.76 0 0 0 .467-.841c.095-.351.122-.748.082-1.19a3.385 3.385 0 0 0-.289-1.142 1.743 1.743 0 0 0-.611-.734c-.255-.166-.556-.234-.902-.203-.344.031-.626.148-.847.351-.218.203-.374.476-.469.821-.095.345-.122.743-.081 1.195Zm10.585 3.029c-.782.071-1.47-.027-2.063-.293a3.265 3.265 0 0 1-1.421-1.239c-.358-.561-.573-1.242-.646-2.044-.071-.782.018-1.482.268-2.1a3.362 3.362 0 0 1 1.156-1.497c.525-.38 1.16-.604 1.906-.671a3.96 3.96 0 0 1 1.423.116c.45.119.852.324 1.205.615.356.291.646.671.872 1.139.226.466.368 1.022.427 1.669l.053.579-6.422.579-.119-1.307 4.436-.4a1.625 1.625 0 0 0-.272-.789 1.429 1.429 0 0 0-.599-.5 1.58 1.58 0 0 0-.826-.13c-.32.029-.597.129-.831.3-.231.167-.405.38-.521.64a1.678 1.678 0 0 0-.138.837l.113 1.242c.034.377.133.695.297.957.167.261.386.454.657.58.271.125.583.172.936.14.235-.021.446-.074.635-.157.189-.084.346-.198.473-.342.126-.145.217-.316.272-.514l1.963-.047a2.667 2.667 0 0 1-.497 1.282c-.272.374-.64.68-1.104.919-.462.234-1.006.38-1.633.436Zm9.724-5.708.151 1.658-3.971.358-.152-1.658 3.972-.358Zm-3.548-2.665.693 7.604-2.015.182-.694-7.605 2.016-.181Zm4.6-.415.693 7.605-2 .18-.694-7.605 2.001-.18Zm7.199 2.336.151 1.658-3.971.358-.151-1.658 3.971-.358Zm-3.548-2.665.694 7.604-2.015.182-.694-7.605 2.015-.181Zm4.6-.415.694 7.605-2.001.18-.693-7.605 2-.18Zm3.172 2.07 2.273-.205c1.006-.091 1.814.079 2.422.51.609.428.949 1.043 1.022 1.845.048.522-.037.992-.255 1.411-.219.416-.557.756-1.016 1.02-.458.261-1.023.422-1.693.482l-3.595.324-.693-7.605 2.015-.181.542 5.946 1.58-.143c.353-.031.635-.147.847-.346a.846.846 0 0 0 .284-.714.9.9 0 0 0-.412-.687c-.245-.167-.544-.235-.897-.203l-2.273.205-.151-1.659Zm6.774 4.7-.694-7.604 2.109-.191.694 7.605-2.109.19Zm7.275-.506c-.783.071-1.471-.027-2.064-.293a3.276 3.276 0 0 1-1.421-1.239c-.357-.561-.572-1.242-.646-2.044-.071-.782.018-1.482.268-2.1a3.364 3.364 0 0 1 1.157-1.497c.524-.381 1.159-.604 1.905-.671a3.966 3.966 0 0 1 1.424.116c.45.119.851.324 1.204.615.356.291.647.671.873 1.139.225.466.367 1.022.426 1.669l.053.579-6.422.579-.119-1.307 4.437-.4a1.635 1.635 0 0 0-.272-.789 1.431 1.431 0 0 0-.6-.5 1.574 1.574 0 0 0-.825-.13 1.636 1.636 0 0 0-.832.299 1.57 1.57 0 0 0-.52.641 1.667 1.667 0 0 0-.139.837l.113 1.242c.035.377.134.695.297.957.167.261.386.454.657.58.271.125.583.172.937.14.234-.021.446-.074.634-.157a1.293 1.293 0 0 0 .746-.856l1.963-.047a2.677 2.677 0 0 1-.497 1.282c-.273.374-.641.68-1.105.919-.461.234-1.005.38-1.632.436Zm-79.713 26.982-.954-10.457 2.08-.187.117 1.277.094-.009c.073-.213.188-.433.344-.66.158-.23.373-.429.644-.597.274-.171.624-.276 1.05-.314.554-.05 1.08.049 1.575.297.495.245.909.645 1.242 1.201.334.552.54 1.264.62 2.136.077.848.005 1.576-.216 2.185-.217.606-.547 1.08-.988 1.422a2.856 2.856 0 0 1-1.524.587c-.41.037-.764.001-1.064-.109a2.181 2.181 0 0 1-.744-.447 2.58 2.58 0 0 1-.474-.591l-.064.006.371 4.069-2.11.191Zm1.458-6.841c.041.452.14.841.296 1.167.156.325.362.571.616.738.255.163.552.23.892.199.343-.031.625-.151.846-.361.22-.213.376-.493.467-.841a3.39 3.39 0 0 0 .082-1.19 3.376 3.376 0 0 0-.29-1.142 1.74 1.74 0 0 0-.61-.734c-.255-.166-.556-.234-.902-.203-.344.031-.626.148-.847.351-.218.203-.374.476-.47.821-.094.345-.121.743-.08 1.195Zm9.287 3.141a3.182 3.182 0 0 1-1.32-.135 2.107 2.107 0 0 1-.97-.676c-.249-.317-.396-.727-.442-1.229-.038-.422.007-.784.136-1.085.129-.301.319-.551.57-.75.252-.199.544-.359.875-.479.336-.12.69-.215 1.063-.285.438-.086.79-.161 1.058-.225.266-.067.457-.148.572-.241a.416.416 0 0 0 .15-.383l-.003-.03c-.029-.314-.15-.547-.364-.701-.21-.154-.495-.215-.855-.182-.38.034-.674.145-.883.334-.21.185-.34.406-.389.664l-1.965.017a2.66 2.66 0 0 1 .475-1.251c.26-.366.61-.66 1.052-.883.446-.227.972-.367 1.58-.422a4.902 4.902 0 0 1 1.226.039 3.19 3.19 0 0 1 1.077.367c.323.181.586.426.791.737.204.308.327.688.368 1.14l.468 5.13-2 .18-.096-1.055-.06.006a2.16 2.16 0 0 1-.433.673 2.282 2.282 0 0 1-.699.487 3.06 3.06 0 0 1-.982.238Zm.472-1.51c.31-.028.578-.113.805-.257.226-.147.397-.332.513-.555.116-.224.162-.469.138-.737l-.074-.807c-.062.049-.149.097-.261.144a4.83 4.83 0 0 1-.373.128c-.14.039-.28.077-.419.113l-.381.089a2.627 2.627 0 0 0-.633.232 1.038 1.038 0 0 0-.401.361.783.783 0 0 0-.109.508c.026.288.15.498.372.631.225.129.5.179.823.15Zm10.81-10.134.769 1.318a2.18 2.18 0 0 1-.677.461c-.253.106-.56.188-.921.247-.357.059-.795.117-1.312.173-.587.06-1.057.197-1.41.412a1.818 1.818 0 0 0-.764.933c-.156.403-.236.919-.238 1.549l.074-.007c.185-.486.473-.875.862-1.166.393-.292.895-.465 1.505-.52.648-.059 1.227.032 1.738.272.514.24.93.614 1.25 1.121.32.507.513 1.132.58 1.874.07.773-.02 1.458-.271 2.056a3.224 3.224 0 0 1-1.162 1.438c-.527.36-1.173.575-1.939.644-.769.069-1.447-.033-2.034-.306-.584-.273-1.057-.712-1.418-1.315-.358-.603-.579-1.365-.663-2.286l-.057-.624c-.167-1.832.066-3.222.698-4.171.632-.949 1.64-1.492 3.022-1.63.375-.041.715-.073 1.02-.097.303-.024.567-.063.792-.116a1.33 1.33 0 0 0 .556-.26Zm-2.055 9.17c.324-.029.594-.138.81-.327.218-.19.376-.447.473-.772.1-.325.13-.705.09-1.141-.039-.433-.136-.793-.293-1.082a1.506 1.506 0 0 0-.603-.644 1.465 1.465 0 0 0-.863-.162c-.244.022-.46.086-.646.193a1.358 1.358 0 0 0-.464.441c-.12.184-.206.406-.259.667-.05.258-.06.548-.03.872.059.65.246 1.151.56 1.501.319.348.727.499 1.225.454Zm8.694.864c-.769.069-1.449-.034-2.04-.311a3.362 3.362 0 0 1-1.417-1.26c-.358-.563-.572-1.234-.643-2.013-.072-.786.017-1.486.267-2.101a3.324 3.324 0 0 1 1.167-1.493c.531-.38 1.181-.605 1.95-.675.77-.069 1.448.036 2.036.316a3.327 3.327 0 0 1 1.423 1.259c.357.56.572 1.233.643 2.019.071.779-.018 1.477-.268 2.096a3.354 3.354 0 0 1-1.172 1.493c-.528.377-1.176.6-1.946.67Zm-.139-1.635c.35-.032.633-.157.85-.376.216-.223.367-.513.455-.87.09-.357.115-.757.075-1.2a3.544 3.544 0 0 0-.291-1.166c-.151-.336-.352-.594-.605-.775-.253-.18-.554-.254-.904-.223-.353.032-.641.16-.864.383-.219.223-.374.513-.464.87-.088.358-.111.757-.07 1.2.04.442.135.831.285 1.167.154.335.359.593.615.773.259.176.565.249.918.217Zm3.962-4.855-.151-1.659 6.892-.621.152 1.659-2.451.221.542 5.946-2.011.181-.542-5.946-2.431.219Zm13.583.088.151 1.659-3.971.358-.151-1.659 3.971-.358Zm-3.548-2.665.694 7.605-2.015.182-.694-7.605 2.015-.182Zm4.6-.415.694 7.605-2.001.181-.693-7.605 2-.181Zm4.092 4.493 2.298-5.069 2.08-.187.693 7.605-2.01.181-.441-4.837-2.287 5.083-2.095.189-.693-7.605 2.015-.182.44 4.822Zm6.762 2.196-.693-7.605 2.109-.19.269 2.951.594-.054 1.801-3.137 2.476-.223-2.345 4.015 3.068 3.587-2.506.226-2.122-2.529-.787.071.246 2.698-2.11.19Zm9.932-3.701 2.298-5.069 2.08-.187.693 7.604-2.01.182-.441-4.838-2.287 5.084-2.095.188-.693-7.604 2.015-.182.44 4.822ZM232.877 33.465l3.872-10.974 7.29 2.544-.674 1.912-4.968-1.732-.756 2.143 1.786.623c.869.303 1.569.705 2.099 1.207.534.5.883 1.065 1.046 1.695.164.63.123 1.293-.122 1.986-.243.689-.629 1.238-1.159 1.647-.529.405-1.162.646-1.9.722-.734.077-1.535-.037-2.404-.34l-4.11-1.433Zm2.981-1.055 1.786.624c.415.144.792.192 1.131.141a1.693 1.693 0 0 0 1.381-1.131 1.51 1.51 0 0 0-.109-1.277c-.222-.419-.644-.736-1.266-.954l-1.787-.623-1.136 3.22Zm10.26-.73 2.463.86c1.091.38 1.85.938 2.277 1.673.429.731.491 1.53.184 2.399-.199.564-.512 1.013-.938 1.345-.426.33-.94.523-1.543.581-.602.055-1.265-.044-1.992-.297l-3.894-1.359 2.903-8.23 2.184.762-2.271 6.435 1.712.597c.382.133.731.147 1.046.04a.971.971 0 0 0 .636-.608c.109-.32.075-.622-.101-.909-.175-.29-.454-.5-.836-.634l-2.463-.86.633-1.794Zm4.808 8.08 2.903-8.23 2.286.797-2.904 8.23-2.285-.797Zm7.778 2.894c-.844-.294-1.507-.726-1.989-1.295a3.822 3.822 0 0 1-.865-1.987c-.097-.752.002-1.544.296-2.376.297-.843.721-1.526 1.27-2.048a3.866 3.866 0 0 1 1.928-1.007c.732-.15 1.514-.08 2.348.211.719.251 1.302.601 1.75 1.05.448.45.746.965.895 1.546.148.581.126 1.195-.066 1.842l-2.156-.752c.084-.432.039-.818-.134-1.16-.168-.343-.461-.588-.879-.734a1.63 1.63 0 0 0-1.031-.034c-.327.098-.629.304-.904.617s-.504.729-.687 1.247c-.185.525-.271.996-.258 1.414.017.42.124.771.32 1.057.197.285.472.49.826.613a1.6 1.6 0 0 0 .76.084c.249-.033.477-.128.685-.284.212-.159.391-.375.536-.65l2.157.752c-.258.617-.625 1.11-1.101 1.482a3.313 3.313 0 0 1-1.654.675c-.631.08-1.313-.007-2.047-.263Zm6.909-4.998.633-1.795 7.468 2.605-.633 1.795-2.656-.926-2.27 6.435-2.178-.76 2.27-6.435-2.634-.919Zm5.494 12.61 3.992-11.316 2.254.785-.488 1.383.102.035a3.19 3.19 0 0 1 .673-.523c.275-.165.593-.27.955-.317.367-.049.78.008 1.242.169.601.21 1.1.56 1.497 1.051.398.488.638 1.1.72 1.834.084.731-.041 1.568-.374 2.512-.323.918-.745 1.64-1.265 2.17-.515.526-1.084.863-1.707 1.011a3.275 3.275 0 0 1-1.865-.11c-.444-.154-.795-.359-1.055-.614a2.456 2.456 0 0 1-.561-.815 2.935 2.935 0 0 1-.211-.838l-.07-.024-1.554 4.404-2.285-.797Zm4.778-6.421c-.173.49-.255.94-.248 1.352.007.411.104.764.289 1.057.187.29.465.5.833.628.372.13.723.138 1.052.024.331-.117.627-.335.888-.654.265-.32.483-.72.651-1.198.168-.475.249-.916.244-1.323-.005-.407-.1-.757-.286-1.05-.185-.294-.466-.506-.842-.637-.372-.13-.721-.142-1.048-.035-.323.108-.616.318-.879.632-.264.313-.482.715-.654 1.204Zm9.537 8.129c-.833-.291-1.491-.72-1.974-1.285a3.828 3.828 0 0 1-.875-1.978c-.104-.754-.007-1.553.291-2.396.3-.85.726-1.535 1.28-2.056a3.819 3.819 0 0 1 1.926-1.002c.734-.145 1.517-.072 2.351.219.833.29 1.489.72 1.967 1.288.483.565.777 1.225.88 1.98.105.75.007 1.55-.293 2.4-.297.844-.723 1.528-1.278 2.052a3.857 3.857 0 0 1-1.931 1c-.729.142-1.51.068-2.344-.222Zm.635-1.765c.379.133.733.136 1.063.01.331-.13.627-.36.888-.69.265-.328.481-.732.65-1.21.169-.48.253-.93.253-1.35.004-.42-.083-.784-.26-1.09-.177-.307-.455-.526-.834-.658-.383-.134-.743-.137-1.081-.01-.334.128-.634.356-.899.685-.261.33-.476.735-.645 1.213a4.176 4.176 0 0 0-.258 1.349c0 .42.09.785.271 1.093.185.305.469.525.852.658ZM138.572 70.357l.33 1.944-4.948.829-.33-1.944 4.948-.83Zm-7.887 4.225 2.415-.405c.153.65.443 1.11.869 1.381.426.27 1.002.345 1.727.224.59-.1 1.035-.316 1.336-.65.3-.335.483-.775.548-1.32.064-.548.035-1.186-.089-1.915l-.158-.93c-.128-.75-.323-1.368-.586-1.854-.26-.49-.59-.838-.99-1.044-.396-.206-.869-.264-1.418-.172-.542.091-.957.245-1.247.463a1.53 1.53 0 0 0-.575.822c-.094.327-.122.708-.082 1.143l-2.416.405a4.957 4.957 0 0 1 .304-2.148 3.906 3.906 0 0 1 1.296-1.703c.608-.467 1.404-.783 2.386-.948.975-.163 1.859-.083 2.652.242.793.324 1.454.86 1.985 1.608.53.749.89 1.68 1.079 2.792l.158.93c.189 1.113.16 2.107-.087 2.982-.244.87-.685 1.585-1.324 2.146-.639.556-1.454.917-2.444 1.083-.945.159-1.784.13-2.516-.085-.732-.22-1.339-.59-1.82-1.112-.481-.527-.815-1.171-1.003-1.935Zm11.834 1.883-1.462-8.604 2.387-.4.567 3.338.673-.113 1.775-3.73 2.802-.47-2.318 4.778 3.813 3.82-2.836.475-2.642-2.697-.891.15.519 3.053-2.387.4Zm12.809-1.974c-.871.146-1.655.087-2.353-.176a3.863 3.863 0 0 1-1.727-1.312c-.457-.611-.761-1.357-.91-2.239-.151-.888-.111-1.694.119-2.416a3.801 3.801 0 0 1 1.198-1.802c.572-.48 1.293-.793 2.164-.94.87-.145 1.653-.084 2.347.184.698.263 1.276.7 1.733 1.31.457.608.761 1.356.911 2.245.15.881.11 1.685-.12 2.41a3.826 3.826 0 0 1-1.204 1.804c-.568.475-1.288.786-2.158.932Zm-.303-1.85c.396-.067.707-.234.935-.503.226-.272.373-.615.441-1.03a4.059 4.059 0 0 0-.02-1.374c-.085-.5-.23-.935-.435-1.304-.201-.37-.453-.646-.757-.829-.304-.183-.654-.242-1.05-.175-.4.067-.717.237-.951.51-.23.273-.381.617-.452 1.032-.068.415-.06.873.025 1.373.085.5.228.936.429 1.305.205.369.461.645.769.828.311.178.666.234 1.066.167Zm11.161-5.546.318 1.876-4.494.754-.319-1.877 4.495-.753Zm-4.279-2.728 1.461 8.604-2.28.382-1.462-8.604 2.281-.382Zm5.206-.873 1.461 8.605-2.264.379-1.461-8.604 2.264-.38Zm7.231 7.81c-.871.146-1.655.088-2.353-.176a3.869 3.869 0 0 1-1.727-1.312c-.457-.61-.76-1.357-.91-2.238-.151-.889-.111-1.694.12-2.417a3.787 3.787 0 0 1 1.198-1.802c.571-.48 1.292-.793 2.163-.939.87-.145 1.653-.085 2.348.183.697.263 1.275.7 1.732 1.311.457.607.761 1.355.912 2.244.149.882.109 1.685-.121 2.411a3.826 3.826 0 0 1-1.204 1.803c-.568.476-1.288.787-2.158.933Zm-.303-1.85c.396-.066.708-.234.935-.502.226-.272.374-.616.441-1.03a4.06 4.06 0 0 0-.02-1.374c-.085-.5-.23-.935-.434-1.304-.201-.37-.454-.646-.758-.83-.304-.183-.654-.241-1.05-.175-.4.067-.716.237-.95.51-.231.274-.382.618-.453 1.033-.068.415-.06.872.025 1.373.085.5.228.935.43 1.305.204.369.461.644.768.827.311.178.666.234 1.066.167Zm10.703-2.778 1.318-6.357 1.815-.304-1.895 9.166-1.586.266-4.739-8.055 1.81-.303 3.277 5.587Zm-3.821-5.496 1.462 8.604-2.281.382-1.462-8.604 2.281-.382Zm7.194 7.644-1.461-8.604 2.252-.378 1.462 8.604-2.253.378Zm9.197-6.945.319 1.876-4.494.753-.319-1.876 4.494-.753Zm-4.279-2.728 1.462 8.604-2.281.382-1.461-8.604 2.28-.382Zm5.206-.873 1.462 8.604-2.264.38-1.462-8.604 2.264-.38Zm7.231 7.81c-.87.146-1.654.088-2.352-.176a3.858 3.858 0 0 1-1.727-1.312c-.458-.61-.761-1.357-.911-2.238-.151-.889-.111-1.695.12-2.417.23-.726.63-1.327 1.198-1.802.572-.48 1.293-.793 2.163-.939.871-.146 1.653-.085 2.348.183a3.81 3.81 0 0 1 1.733 1.311c.456.607.76 1.355.911 2.244.15.881.11 1.685-.121 2.411a3.824 3.824 0 0 1-1.203 1.803c-.569.476-1.288.786-2.159.932Zm-.303-1.85c.396-.066.708-.234.935-.502.227-.273.374-.616.442-1.03a4.059 4.059 0 0 0-.02-1.374c-.085-.5-.23-.935-.435-1.304-.201-.37-.454-.646-.757-.83-.304-.183-.654-.242-1.05-.175-.4.067-.717.237-.951.51-.23.273-.381.617-.453 1.033a4.17 4.17 0 0 0 .026 1.372c.085.5.228.936.429 1.305.205.37.461.645.769.828.311.178.666.234 1.065.167ZM209.208 141.448l.458-1.976 9.316 2.133-.458 1.976-3.472-.795-2.168 9.36-2.371-.543 2.168-9.36-3.473-.795Zm21.549 12.838-1.16 4.252-2.166-.496.564-2.436-.947-.216.43-1.855 3.279.751Zm-11.825-9.708 2.254.516-1.536 6.631 2.398.549 1.536-6.631 2.254.516-1.535 6.632 2.398.549 1.536-6.632 2.254.517-1.969 8.502-11.559-2.647 1.969-8.502Zm15.193 12.601c-.543-.124-1.004-.329-1.385-.615a2.381 2.381 0 0 1-.812-1.077c-.157-.432-.17-.929-.04-1.49.109-.472.288-.849.536-1.13.248-.282.544-.486.888-.613a3.527 3.527 0 0 1 1.122-.209c.407-.012.826.01 1.256.066.507.061.917.105 1.23.13.313.021.549.001.707-.06a.477.477 0 0 0 .3-.362l.008-.034c.081-.35.033-.647-.144-.889-.173-.242-.461-.409-.864-.501-.424-.098-.784-.081-1.079.05a1.335 1.335 0 0 0-.66.583l-2.141-.677c.231-.491.552-.887.964-1.189a3.218 3.218 0 0 1 1.46-.587c.564-.088 1.187-.055 1.866.101.473.108.912.267 1.318.477.41.21.757.47 1.039.779.286.311.484.671.595 1.081.112.406.109.862-.008 1.368l-1.328 5.735-2.237-.513.273-1.179-.067-.015a2.465 2.465 0 0 1-.711.577 2.61 2.61 0 0 1-.934.282 3.52 3.52 0 0 1-1.152-.089Zm1.053-1.473c.347.08.669.082.967.006.298-.079.55-.22.756-.421.206-.202.344-.452.413-.751l.209-.902a1.306 1.306 0 0 1-.335.063 5.85 5.85 0 0 1-.451.008 26.977 26.977 0 0 1-.496-.026c-.163-.015-.312-.027-.446-.038a3 3 0 0 0-.77.027 1.182 1.182 0 0 0-.565.25.895.895 0 0 0-.3.514c-.074.321-.015.593.178.816.198.22.478.372.84.454Zm6.291-4.015.43-1.854 7.709 1.765-.429 1.855-2.742-.628-1.54 6.648-2.248-.515 1.539-6.648-2.719-.623Zm11.134 9.725c-.875-.2-1.587-.55-2.137-1.049a3.72 3.72 0 0 1-1.099-1.849c-.188-.734-.178-1.55.03-2.447.202-.874.55-1.603 1.043-2.186a3.874 3.874 0 0 1 1.792-1.216c.706-.227 1.476-.245 2.31-.053a4.534 4.534 0 0 1 1.505.63c.446.288.809.653 1.088 1.094.282.442.462.957.54 1.546.078.585.034 1.239-.134 1.963l-.15.647-7.183-1.645.338-1.461 4.963 1.136a1.858 1.858 0 0 0-.013-.953 1.628 1.628 0 0 0-.473-.755 1.788 1.788 0 0 0-.85-.433 1.861 1.861 0 0 0-1.01.031c-.311.099-.576.27-.795.511a1.925 1.925 0 0 0-.45.859l-.322 1.389c-.097.421-.104.802-.019 1.144.087.343.256.63.506.862.249.232.571.393.967.484.262.06.51.078.745.054s.447-.092.636-.204c.19-.112.35-.266.481-.461l2.148.643a3.066 3.066 0 0 1-.999 1.217c-.429.31-.939.512-1.528.606-.585.091-1.228.057-1.93-.104Zm4.984.967.423-1.874.282.065a.94.94 0 0 0 .549-.026c.17-.066.329-.199.477-.398.147-.2.29-.476.43-.828.141-.357.283-.802.427-1.337l1.01-3.732 6.469 1.481-1.969 8.503-2.249-.515 1.54-6.648-2.099-.481-.735 2.566c-.198.704-.426 1.297-.685 1.778-.256.482-.543.859-.863 1.131a2.314 2.314 0 0 1-1.048.518c-.379.077-.796.063-1.25-.041l-.709-.162Zm12.77-3.278 2.542.582c1.126.258 1.942.728 2.449 1.412.507.679.657 1.467.449 2.364-.135.583-.395 1.064-.782 1.441-.386.374-.876.624-1.468.748-.592.121-1.263.096-2.012-.076l-4.021-.92 1.969-8.503 2.254.516-1.54 6.648 1.767.405c.395.09.743.065 1.044-.076a.974.974 0 0 0 .565-.675 1.026 1.026 0 0 0-.202-.891c-.206-.269-.507-.448-.902-.539l-2.542-.582.43-1.854Zm13.449 3.814-.43 1.854-4.442-1.017.43-1.854 4.442 1.017Zm-2.9-4.15-1.969 8.502-2.254-.516 1.969-8.502 2.254.516Zm5.145 1.178-1.969 8.502-2.237-.512 1.969-8.502 2.237.512Zm2.704 3.371 2.542.582c1.127.258 1.943.728 2.45 1.412.507.679.657 1.467.449 2.364-.135.583-.396 1.064-.783 1.441-.386.374-.875.624-1.468.748-.591.121-1.262.096-2.012-.076l-4.02-.92 1.969-8.503 2.254.517-1.54 6.647 1.767.405c.395.09.743.065 1.044-.076a.974.974 0 0 0 .565-.675 1.026 1.026 0 0 0-.202-.891c-.206-.269-.507-.448-.902-.539l-2.542-.582.429-1.854Zm5.676 7.501 1.969-8.502 2.359.54-1.969 8.502-2.359-.54Zm7.22-1.622 4.311-4.69 2.326.532-1.969 8.502-2.249-.515 1.253-5.407-4.304 4.709-2.343-.537 1.969-8.502 2.254.516-1.248 5.392Zm4.594-7.75 1.645.377c-.159.67-.534 1.154-1.124 1.45-.585.297-1.298.35-2.136.158-.842-.193-1.461-.55-1.857-1.072-.396-.522-.516-1.119-.361-1.791l1.634.375c-.063.253-.034.501.085.742.123.242.385.409.788.501.391.089.695.054.911-.106a1.07 1.07 0 0 0 .415-.634Zm-81.895 12.816 1.969-8.502 7.438 1.703-1.969 8.503-2.254-.517 1.54-6.647-2.958-.678-1.539 6.648-2.227-.51Zm13.127 3.181c-.861-.197-1.562-.55-2.106-1.059a3.842 3.842 0 0 1-1.089-1.87c-.186-.738-.179-1.543.023-2.414.203-.878.551-1.607 1.043-2.186a3.822 3.822 0 0 1 1.802-1.208c.713-.225 1.5-.239 2.36-.042.86.197 1.56.551 2.098 1.063a3.783 3.783 0 0 1 1.095 1.871c.187.735.179 1.542-.024 2.42-.202.871-.549 1.598-1.042 2.18a3.847 3.847 0 0 1-1.807 1.207c-.709.222-1.493.235-2.353.038Zm.434-1.824c.391.09.743.054 1.057-.108.314-.165.583-.426.805-.783.227-.356.397-.781.512-1.276.114-.494.148-.951.101-1.37-.043-.418-.17-.769-.38-1.054-.21-.285-.51-.473-.902-.562-.395-.091-.753-.054-1.075.109-.318.164-.59.424-.816.781a4.152 4.152 0 0 0-.506 1.277 4.16 4.16 0 0 0-.107 1.368c.047.419.177.772.391 1.057.218.284.525.47.92.561Zm4.084 5.307 1.01-4.362.653.15c.216-.075.411-.229.585-.461.178-.231.345-.514.5-.847.159-.333.305-.698.44-1.095.139-.399.274-.803.403-1.213l.866-2.728 6.524 1.494-1.536 6.631 1.318.302-1.01 4.362-2.249-.515.577-2.491-5.2-1.191-.577 2.491-2.304-.527Zm4.012-3.675 3.207.735 1.115-4.816-2.293-.525-.312.943a21.28 21.28 0 0 1-.807 2.251c-.264.604-.568 1.075-.91 1.412Zm17.458-6.273.363 1.704a2.496 2.496 0 0 1-.9.26 4.675 4.675 0 0 1-1.089-.057 27.586 27.586 0 0 1-1.487-.276c-.659-.143-1.219-.161-1.679-.052a2.083 2.083 0 0 0-1.164.742c-.314.382-.585.915-.813 1.597l.083.019a2.942 2.942 0 0 1 1.354-.961c.531-.177 1.138-.188 1.821-.031.724.165 1.32.469 1.79.911.473.442.792.995.957 1.659.165.663.151 1.41-.041 2.24-.2.864-.544 1.576-1.031 2.136a3.702 3.702 0 0 1-1.777 1.15c-.701.205-1.479.209-2.336.013-.86-.197-1.56-.548-2.101-1.052-.536-.504-.893-1.147-1.069-1.93-.173-.782-.14-1.687.098-2.717l.162-.697c.474-2.048 1.225-3.476 2.251-4.282 1.027-.806 2.315-1.04 3.866-.7.423.089.803.174 1.142.255.339.082.64.133.903.155.267.022.499-.006.697-.086Zm-5.515 9.23c.362.083.694.059.996-.07.306-.128.569-.351.791-.669.225-.318.394-.72.507-1.208.112-.483.135-.909.069-1.278-.062-.371-.203-.676-.425-.913a1.674 1.674 0 0 0-.88-.481 1.803 1.803 0 0 0-.771-.02 1.56 1.56 0 0 0-.662.315 2.179 2.179 0 0 0-.52.633 3.589 3.589 0 0 0-.345.935c-.168.727-.144 1.337.073 1.83.22.489.61.798 1.167.926Zm9.135 4.015c-.86-.197-1.562-.55-2.105-1.059a3.842 3.842 0 0 1-1.089-1.87c-.187-.738-.179-1.543.022-2.414.204-.878.552-1.607 1.043-2.186a3.825 3.825 0 0 1 1.802-1.208c.713-.225 1.5-.239 2.36-.042.861.197 1.56.551 2.099 1.063a3.774 3.774 0 0 1 1.094 1.871c.188.735.18 1.542-.023 2.42-.202.871-.549 1.598-1.042 2.18a3.852 3.852 0 0 1-1.807 1.207c-.709.222-1.493.235-2.354.038Zm.434-1.824c.392.089.744.054 1.058-.108.314-.165.582-.426.805-.783.226-.356.397-.781.511-1.276.115-.494.149-.951.102-1.37-.043-.418-.17-.769-.38-1.054-.21-.285-.511-.473-.902-.562-.395-.091-.754-.055-1.075.109-.318.164-.59.424-.817.78a4.22 4.22 0 0 0-.506 1.278c-.114.494-.15.95-.107 1.368.047.419.178.771.391 1.057.219.284.525.47.92.561Zm4.587 6.156 2.708-11.69 2.326.532-.331 1.429.106.024c.156-.205.359-.404.61-.595.255-.194.559-.334.914-.42.359-.089.776-.079 1.252.03a3.283 3.283 0 0 1 1.605.88c.449.441.756 1.023.92 1.744.164.718.133 1.564-.092 2.538-.22.948-.559 1.714-1.017 2.297-.453.58-.98.978-1.582 1.194a3.274 3.274 0 0 1-1.866.097c-.458-.105-.83-.27-1.116-.494a2.467 2.467 0 0 1-.649-.749 2.955 2.955 0 0 1-.302-.81l-.072-.016-1.054 4.55-2.36-.541Zm4.033-6.91c-.117.505-.149.962-.096 1.371.053.408.188.748.405 1.019.218.268.518.445.898.532.384.088.733.058 1.048-.092.315-.153.585-.402.809-.747.228-.348.399-.769.514-1.264a3.85 3.85 0 0 0 .095-1.342c-.05-.404-.184-.742-.401-1.013-.217-.271-.52-.451-.907-.54-.384-.088-.733-.061-1.046.081-.309.143-.577.385-.803.726-.227.34-.399.763-.516 1.269ZM166.86 201.386l-2.042 11.455-2.423-.426 1.633-9.156-.068-.012-2.917 1.183.383-2.148 3.157-1.297 2.277.401Zm.868 9.89.34-1.907 6.127-6.694 1.646.289-.471 2.64-.974-.171-3.867 4.241-.015.09 6.799 1.195-.346 1.941-9.239-1.624Zm5.142 2.981.462-2.596.196-.837 1.428-8.015 2.272.399-2.042 11.456-2.316-.407Zm8.518 1.497.326-1.892.285.05a.94.94 0 0 0 .547-.054c.167-.075.319-.215.456-.422s.266-.49.388-.849c.122-.363.241-.815.357-1.356l.818-3.779 6.536 1.149-1.532 8.591-2.272-.399 1.198-6.718-2.121-.373-.602 2.6c-.162.714-.36 1.317-.594 1.811-.23.494-.498.885-.804 1.174a2.315 2.315 0 0 1-1.019.571 2.967 2.967 0 0 1-1.251.022l-.716-.126Zm13.917 2.62c-.884-.156-1.613-.469-2.188-.939a3.73 3.73 0 0 1-1.193-1.79c-.224-.724-.256-1.539-.095-2.445.158-.884.468-1.63.93-2.237a3.88 3.88 0 0 1 1.728-1.306c.693-.262 1.461-.32 2.304-.172.567.1 1.079.284 1.535.553.46.266.841.611 1.142 1.037.305.427.511.932.619 1.517.108.58.097 1.236-.033 1.967l-.117.654-7.258-1.276.263-1.476 5.014.881c.061-.343.041-.66-.061-.951a1.619 1.619 0 0 0-.511-.73 1.79 1.79 0 0 0-.871-.39 1.867 1.867 0 0 0-1.007.083 1.8 1.8 0 0 0-.768.551 1.912 1.912 0 0 0-.405.881l-.25 1.404c-.076.425-.063.806.038 1.143.105.338.289.616.55.835.261.219.591.364.99.434.265.046.514.052.748.016.233-.036.441-.115.625-.236.183-.122.335-.284.455-.486l2.179.533c-.206.51-.518.932-.935 1.267-.413.331-.912.559-1.496.683-.579.121-1.223.119-1.932-.005Zm6.065-6.036.334-1.873 7.79 1.369-.334 1.874-2.77-.487-1.198 6.718-2.272-.4 1.198-6.718-2.748-.483Zm15.538 9.833c-.869-.152-1.588-.469-2.156-.95a3.835 3.835 0 0 1-1.184-1.812c-.224-.727-.258-1.531-.101-2.411.159-.888.468-1.633.93-2.237a3.81 3.81 0 0 1 1.738-1.298c.7-.262 1.485-.316 2.355-.163.869.153 1.586.471 2.15.955.568.48.964 1.085 1.189 1.812.224.725.258 1.53.1 2.418-.157.88-.467 1.624-.929 2.231a3.856 3.856 0 0 1-1.743 1.297c-.697.258-1.48.311-2.349.158Zm.34-1.844c.396.07.746.016 1.051-.161.305-.181.56-.455.764-.823.208-.368.356-.801.445-1.301.09-.499.1-.957.032-1.373-.065-.415-.209-.76-.434-1.034-.224-.274-.534-.446-.929-.515-.399-.07-.755-.016-1.068.164-.309.18-.568.454-.776.821-.204.368-.35.802-.44 1.302a4.157 4.157 0 0 0-.036 1.372c.068.416.216.761.444 1.036.232.271.548.442.947.512Zm5.471 2.693 1.531-8.592 7.516 1.321-1.532 8.592-2.277-.4 1.197-6.718-2.988-.526-1.198 6.718-2.249-.395Zm11.973-4.034 2.569.452c1.137.2 1.977.628 2.518 1.285.541.653.731 1.432.57 2.338-.105.59-.341 1.083-.708 1.48-.367.393-.843.667-1.428.822-.585.151-1.256.16-2.013.027l-4.063-.715 1.531-8.591 2.278.4-1.197 6.718 1.785.314c.399.07.745.027 1.038-.129a.973.973 0 0 0 .53-.703 1.027 1.027 0 0 0-.247-.88c-.22-.258-.529-.422-.928-.492l-2.569-.452.334-1.874Zm6.052 7.202 1.531-8.591 2.384.419-1.532 8.591-2.383-.419Zm5.039-6.042.334-1.874 7.789 1.369-.334 1.874-2.77-.487-1.197 6.718-2.272-.399 1.197-6.718-2.747-.483Zm10.151 8.88c-.548-.096-1.02-.277-1.415-.543a2.389 2.389 0 0 1-.866-1.035c-.178-.423-.217-.919-.116-1.485.085-.478.244-.863.478-1.157a2.17 2.17 0 0 1 .855-.657 3.556 3.556 0 0 1 1.11-.267 8.131 8.131 0 0 1 1.258.002c.509.036.92.058 1.234.067.315.006.549-.026.704-.095a.476.476 0 0 0 .281-.378l.006-.033c.063-.354 0-.648-.189-.881-.186-.233-.482-.385-.889-.457-.429-.075-.787-.04-1.074.106a1.34 1.34 0 0 0-.63.616l-2.173-.567c.205-.502.506-.915.902-1.237a3.225 3.225 0 0 1 1.428-.661c.559-.117 1.182-.115 1.869.006.477.084.924.22 1.341.409.42.189.779.431 1.077.725.301.296.518.645.65 1.049.132.4.153.856.062 1.367l-1.033 5.795-2.261-.398.212-1.191-.067-.012a2.465 2.465 0 0 1-.68.613 2.605 2.605 0 0 1-.919.329 3.495 3.495 0 0 1-1.155-.03Zm.976-1.524c.351.061.673.047.966-.044.294-.095.539-.248.734-.459.196-.212.32-.469.374-.771l.163-.912a1.323 1.323 0 0 1-.332.08 5.977 5.977 0 0 1-.45.031c-.166.001-.331.001-.496-.001a67.144 67.144 0 0 0-.448-.015 2.986 2.986 0 0 0-.767.067 1.193 1.193 0 0 0-.552.278.903.903 0 0 0-.273.529c-.058.324.015.593.22.806.208.209.496.346.861.411ZM12.72 93.966l1.674-11.515 2.435.347-.69 4.751 4.944.705.69-4.751 2.43.347-1.673 11.515-2.43-.347.692-4.756-4.945-.706-.691 4.757-2.436-.347Zm14.213 2.193c-.55-.078-1.028-.244-1.432-.497a2.387 2.387 0 0 1-.898-1.006c-.192-.418-.247-.911-.164-1.481.07-.48.216-.87.44-1.171.224-.301.502-.53.834-.685.333-.155.7-.256 1.1-.302a7.982 7.982 0 0 1 1.258-.039c.51.02.922.028 1.236.027.315-.005.548-.044.7-.118a.476.476 0 0 0 .27-.386l.004-.034c.052-.356-.02-.648-.217-.875-.193-.226-.494-.369-.903-.427-.43-.061-.788-.015-1.07.14a1.337 1.337 0 0 0-.61.636l-2.19-.496c.189-.508.476-.93.861-1.266a3.23 3.23 0 0 1 1.406-.706c.556-.135 1.179-.153 1.869-.055.48.069.93.19 1.353.365.426.176.793.406 1.1.69.31.286.538.629.683 1.028.145.396.18.85.106 1.364l-.846 5.825-2.273-.324.174-1.198-.067-.01c-.178.25-.398.462-.66.635-.263.17-.565.29-.909.359a3.504 3.504 0 0 1-1.155.007Zm.927-1.555c.352.05.674.025.964-.075.29-.104.53-.265.719-.483.188-.218.305-.479.349-.782l.133-.917a1.301 1.301 0 0 1-.329.091c-.133.02-.282.034-.449.045-.165.007-.33.012-.495.016l-.448-.001a3 3 0 0 0-.766.092c-.223.06-.404.158-.542.295a.902.902 0 0 0-.256.538c-.048.326.034.592.245.798.216.203.507.33.875.383Zm4.779 4.785.644-4.43.664.094c.208-.093.39-.262.544-.508.158-.245.3-.54.428-.886.13-.345.246-.72.347-1.127.105-.41.206-.824.301-1.242l.635-2.791 6.627.945-.98 6.736 1.34.19-.645 4.432-2.283-.326.367-2.53-5.281-.754-.368 2.53-2.34-.333Zm3.693-3.996 3.256.465.711-4.892-2.328-.332-.233.965a21.27 21.27 0 0 1-.617 2.311c-.213.624-.476 1.118-.79 1.483Zm11.89 3.808c-.89-.127-1.628-.416-2.217-.867a3.72 3.72 0 0 1-1.25-1.751c-.248-.717-.306-1.53-.173-2.441.129-.889.415-1.644.857-2.265a3.879 3.879 0 0 1 1.685-1.361c.684-.285 1.45-.368 2.298-.247.57.082 1.087.25 1.552.503.469.25.86.584 1.175 1 .318.416.54.915.667 1.495.127.577.136 1.233.03 1.967l-.096.658-7.295-1.04.215-1.485 5.04.719c.05-.345.02-.661-.092-.949a1.621 1.621 0 0 0-.533-.713 1.795 1.795 0 0 0-.884-.361 1.866 1.866 0 0 0-1.004.115 1.8 1.8 0 0 0-.75.576 1.913 1.913 0 0 0-.376.893l-.205 1.412c-.063.427-.037.807.075 1.141.116.334.308.606.576.817.268.21.602.344 1.004.401.266.038.515.035.747-.008.233-.043.438-.129.617-.256a1.49 1.49 0 0 0 .44-.5l2.195.462c-.19.516-.488.948-.894 1.296-.402.344-.893.588-1.473.731-.575.14-1.219.16-1.931.058Zm4.836.517 3.674-4.062-2.402-4.572 2.734.39 1.753 3.7.371.052.491-3.38 2.397.343-.492 3.379.36.051 2.736-3.06 2.734.39-3.6 3.717 2.361 4.923-2.795-.399-1.732-3.69-.337-.049-.49 3.374-2.397-.342.49-3.373-.337-.048-2.723 3.055-2.796-.399Zm21.248-2.353-.273 1.883-4.512-.643.274-1.884 4.511.644Zm-3.235-3.894-1.255 8.637-2.29-.327 1.256-8.636 2.29.326Zm5.226.745-1.255 8.637-2.273-.324 1.255-8.637 2.273.324Zm4.483 9.627c-.874-.124-1.603-.417-2.186-.879a3.842 3.842 0 0 1-1.241-1.773c-.247-.72-.307-1.523-.178-2.407.13-.892.415-1.647.857-2.266a3.818 3.818 0 0 1 1.695-1.353c.692-.284 1.475-.364 2.349-.24.874.125 1.6.42 2.18.886.583.461.998 1.053 1.246 1.773.248.716.307 1.52.178 2.413-.129.884-.415 1.637-.857 2.259a3.853 3.853 0 0 1-1.701 1.353c-.688.281-1.468.359-2.342.234Zm.28-1.853c.398.056.746-.009 1.046-.196.299-.191.545-.473.737-.847a4.08 4.08 0 0 0 .403-1.315c.073-.502.07-.96-.012-1.373-.078-.413-.234-.753-.467-1.02-.233-.266-.548-.428-.945-.484-.402-.057-.756.009-1.063.198-.303.19-.553.472-.749.846a4.181 4.181 0 0 0-.397 1.315c-.073.502-.07.96.007 1.373.081.413.24.754.477 1.021.241.264.563.424.964.482ZM39.303 214.17l.552 1.893-4.819 1.395-.552-1.893 4.82-1.395Zm-7.346 5.108 2.352-.681c.227.629.567 1.053 1.022 1.272.454.219 1.035.227 1.74.022.575-.166.993-.433 1.253-.8.26-.367.39-.825.392-1.373 0-.553-.102-1.183-.309-1.892l-.264-.906c-.213-.731-.479-1.322-.796-1.775-.315-.457-.683-.764-1.103-.922-.418-.16-.894-.162-1.429-.007-.527.153-.922.354-1.185.604a1.53 1.53 0 0 0-.476.883c-.056.335-.04.717.05 1.145l-2.353.681a4.955 4.955 0 0 1 .054-2.169 3.909 3.909 0 0 1 1.09-1.842c.551-.534 1.305-.939 2.262-1.216.95-.275 1.837-.298 2.662-.067.824.23 1.543.687 2.157 1.369.613.682 1.078 1.565 1.393 2.648l.265.906c.316 1.083.401 2.074.257 2.972-.142.893-.498 1.654-1.068 2.285-.57.626-1.338 1.079-2.303 1.358-.92.267-1.756.335-2.508.206-.753-.133-1.398-.431-1.936-.895-.539-.467-.945-1.069-1.22-1.806Zm16.812 2.189-4.088-14.018 2.32-.671 4.088 14.018-2.32.671Zm-.783-2.683a5.01 5.01 0 0 1-1.853.199 4.22 4.22 0 0 1-1.635-.491 4.185 4.185 0 0 1-1.294-1.11 4.89 4.89 0 0 1-.827-1.659 4.88 4.88 0 0 1-.196-1.848 4.102 4.102 0 0 1 1.612-2.915 4.912 4.912 0 0 1 1.67-.827l.431-.125 2.523 8.651-.43.125Zm-.528-1.811.257-.074-1.467-5.03-.257.075a1.794 1.794 0 0 0-1.237 1.156 2.553 2.553 0 0 0-.15.907c.006.33.06.671.163 1.024.136.466.336.867.6 1.205.263.334.575.571.935.711.36.136.745.145 1.156.026Zm2.848 1.139-.431.125-2.523-8.651.43-.125a4.946 4.946 0 0 1 1.856-.194 4.13 4.13 0 0 1 2.929 1.601c.365.466.64 1.021.829 1.665.185.636.25 1.25.194 1.842a4.189 4.189 0 0 1-.496 1.629 4.221 4.221 0 0 1-1.116 1.287 4.995 4.995 0 0 1-1.672.821Zm-.528-1.811a1.85 1.85 0 0 0 .779-.432c.206-.202.359-.441.46-.719.1-.278.15-.58.149-.907a3.707 3.707 0 0 0-.155-1.02 3.441 3.441 0 0 0-.606-1.203 2.215 2.215 0 0 0-.931-.718c-.357-.141-.745-.151-1.163-.03l-.257.074 1.467 5.03.257-.075Zm11.193 1.634-4.088-14.019 2.319-.671 4.089 14.018-2.32.672Zm-.783-2.684a5.01 5.01 0 0 1-1.853.199 4.22 4.22 0 0 1-1.635-.491 4.194 4.194 0 0 1-1.294-1.109 4.902 4.902 0 0 1-.827-1.66 4.877 4.877 0 0 1-.196-1.848 4.103 4.103 0 0 1 1.612-2.915 4.911 4.911 0 0 1 1.67-.827l.431-.125 2.523 8.651-.43.125Zm-.528-1.811.257-.074-1.467-5.029-.257.074a1.794 1.794 0 0 0-1.237 1.157 2.548 2.548 0 0 0-.15.907c.006.329.06.67.163 1.023.136.466.336.867.6 1.205.263.334.575.571.935.711.36.136.745.145 1.156.026Zm2.848 1.139-.431.125-2.523-8.651.43-.125a4.946 4.946 0 0 1 1.856-.194 4.13 4.13 0 0 1 2.929 1.601c.365.466.64 1.021.829 1.665.185.636.25 1.25.194 1.842a4.184 4.184 0 0 1-.496 1.629 4.221 4.221 0 0 1-1.116 1.287 4.993 4.993 0 0 1-1.672.821Zm-.528-1.811c.313-.09.572-.234.779-.432a1.9 1.9 0 0 0 .46-.719c.1-.277.15-.58.149-.907a3.707 3.707 0 0 0-.155-1.02 3.44 3.44 0 0 0-.606-1.203 2.214 2.214 0 0 0-.931-.718c-.357-.141-.745-.151-1.163-.03l-.257.075 1.467 5.029.257-.075Zm10.22-.995c-.863.25-1.656.29-2.38.121a3.745 3.745 0 0 1-1.866-1.08c-.524-.551-.914-1.268-1.172-2.151-.251-.862-.304-1.667-.16-2.415a3.854 3.854 0 0 1 .97-1.931c.505-.54 1.17-.93 1.991-1.168a4.564 4.564 0 0 1 1.623-.18 3.577 3.577 0 0 1 1.486.428c.463.248.872.611 1.228 1.087.355.473.637 1.066.845 1.779l.186.638-7.079 2.05-.42-1.441 4.89-1.415a1.855 1.855 0 0 0-.477-.826 1.628 1.628 0 0 0-.783-.43 1.794 1.794 0 0 0-.954.034 1.855 1.855 0 0 0-.868.517c-.222.238-.37.515-.444.832-.074.314-.065.636.028.968l.4 1.369c.12.415.301.751.542 1.009.245.256.533.425.864.506.332.082.692.066 1.081-.046a2.29 2.29 0 0 0 .678-.315 1.474 1.474 0 0 0 .65-1.122l2.191-.481a3.05 3.05 0 0 1-.277 1.547c-.223.479-.57.902-1.038 1.27-.466.364-1.044.646-1.736.846Zm5.316-1.717-2.443-8.378 2.325-.673.948 3.251.655-.19 1.333-3.911 2.729-.79-1.751 5.014 4.227 3.354-2.761.8-2.936-2.374-.868.251.867 2.973-2.325.673Zm6.658-9.032-.533-1.827 7.597-2.2.533 1.828-2.701.782 1.91 6.551-2.215.641-1.911-6.551-2.68.776Zm12.245.235 1.468-6.187 2.292-.663 2.444 8.378-2.216.641-1.554-5.329-1.453 6.2-2.309.669-2.443-8.379 2.221-.643 1.55 5.313Zm8.068.988-2.444-8.378 3.575-1.035c1.033-.299 1.907-.339 2.622-.12.715.218 1.178.69 1.389 1.413.133.455.074.882-.177 1.282-.25.4-.66.739-1.229 1.019.512-.109.973-.119 1.382-.028.412.086.755.253 1.028.501.278.247.47.554.577.921.139.477.131.923-.024 1.338-.152.415-.445.783-.879 1.106-.431.322-.996.584-1.694.787l-4.126 1.194Zm1.659-2.367 1.959-.567c.324-.094.555-.244.692-.449.14-.21.171-.45.092-.719-.087-.298-.248-.506-.483-.623-.232-.118-.51-.13-.834-.037l-1.959.568.533 1.827Zm-.931-3.191 1.457-.422c.233-.067.422-.157.567-.27a.867.867 0 0 0 .296-.406.786.786 0 0 0 .004-.492.729.729 0 0 0-.487-.515c-.25-.086-.555-.076-.915.028l-1.408.408.486 1.669Zm12.469-3.811.533 1.827-4.377 1.267-.533-1.827 4.377-1.267Zm-4.564-2.216 2.443 8.378-2.221.643-2.444-8.378 2.222-.643Zm5.07-1.468 2.443 8.378-2.205.639-2.443-8.379 2.205-.638Zm8.082 6.923c-.847.245-1.633.278-2.357.097a3.861 3.861 0 0 1-1.866-1.104c-.525-.554-.912-1.26-1.163-2.118-.252-.866-.305-1.671-.159-2.415a3.792 3.792 0 0 1 .982-1.929c.512-.542 1.192-.937 2.04-1.182.848-.245 1.632-.275 2.353-.09a3.8 3.8 0 0 1 1.872 1.103c.524.55.912 1.258 1.164 2.123.251.858.303 1.661.158 2.409a3.83 3.83 0 0 1-.987 1.931c-.51.538-1.189.929-2.037 1.175Zm-.514-1.803c.386-.112.676-.314.871-.607.193-.297.3-.655.32-1.075a4.053 4.053 0 0 0-.179-1.362 4.077 4.077 0 0 0-.582-1.245c-.242-.344-.525-.589-.848-.736-.323-.147-.677-.165-1.063-.053-.389.112-.684.318-.885.617-.197.297-.308.657-.331 1.077-.02.42.042.874.184 1.361s.334.903.576 1.247c.246.343.533.587.859.733.33.141.689.155 1.078.043Z"/>
    <path stroke="#FF6FC0" stroke-linecap="round" stroke-width="1.73" d="M209.792 52.222c-11.397-1.7-38.812-3.923-57.302.785-23.112 5.884-43.686 12.641-42.076 23.3 1.609 10.66 34.396 10.606 60.992 6.805 26.595-3.801 54.044-15.232 52.401-24.91-1.643-9.68-16.561-12.352-23.65-12.987-5.67-.509-13.409-.591-16.57-.569"/>
    <path stroke="#FFA17A" stroke-linecap="round" stroke-width="1.73" d="M266.843 223.755c-3.21-6.546-17.424-20.97-48.601-26.297-38.972-6.659-61.073-4.614-68.39 3.576-7.318 8.191 13.066 24.247 50.173 29.847 29.687 4.48 45.094 3.027 49.087 1.74"/>
    <path stroke="#1E1E1E" stroke-linecap="round" stroke-width="1.73" d="M67.428 56.386c4.925-2.644 18.342-9.253 32.602-14.533 14.261-5.28 26.181-7.637 30.359-8.155"/>
    <path fill="#77A1F6" d="M220.32 1.111a.863.863 0 0 0-.925.799.866.866 0 0 0 .801.925l.124-1.724Zm17.632 6.411.537-.677-.537.677Zm46.313 2.94.646-.574-.646.573Zm-5.936 21.798a.867.867 0 0 0 .846.885l7.785.183a.863.863 0 1 0 .037-1.728l-6.919-.163.149-6.914a.867.867 0 0 0-.846-.885.863.863 0 0 0-.884.844l-.168 7.778ZM220.196 2.835c1.913.141 5.1.583 8.385 1.451 3.304.873 6.608 2.151 8.835 3.914l1.073-1.355c-2.509-1.985-6.09-3.337-9.469-4.23-3.396-.898-6.689-1.356-8.7-1.504l-.124 1.724Zm17.22 5.365a86.134 86.134 0 0 1 2.102 1.732c.678.572 1.348 1.14 2.016 1.674 1.335 1.07 2.707 2.042 4.241 2.72 3.139 1.39 6.78 1.474 11.975-.802l-.697-1.583c-4.868 2.131-7.991 1.951-10.58.805-1.331-.589-2.565-1.453-3.859-2.488-.647-.518-1.297-1.07-1.981-1.646a87.321 87.321 0 0 0-2.144-1.767L237.416 8.2Zm20.334 5.324c2.534-1.11 5.005-2.397 7.324-3.518 2.345-1.133 4.56-2.109 6.692-2.668 2.125-.558 4.125-.691 6.052-.18 1.92.51 3.85 1.684 5.8 3.877l1.293-1.147c-2.132-2.397-4.343-3.787-6.652-4.4-2.303-.612-4.622-.43-6.935.177-2.305.605-4.646 1.644-7.006 2.784-2.386 1.153-4.768 2.398-7.265 3.492l.697 1.583Zm25.868-2.49c2.972 3.342 2.874 7.362 1.406 11.202-1.474 3.856-4.285 7.372-6.428 9.42l1.196 1.25c2.268-2.165 5.258-5.887 6.849-10.05 1.598-4.181 1.83-8.965-1.73-12.968l-1.293 1.147Z"/>
    <path fill="#46B2AC" d="M158.558 108.13a.863.863 0 0 0-.303 1.184.869.869 0 0 0 1.187.303l-.884-1.487Zm67.019 25.73a.866.866 0 0 0 1.14-.446l3.108-7.124a.866.866 0 0 0-1.588-.691l-2.763 6.332-6.353-2.765a.864.864 0 1 0-.691 1.583l7.147 3.111Zm-66.135-24.243c-.028.016.012-.007.186-.081.148-.063.358-.148.624-.251a38.563 38.563 0 0 1 2.209-.77 45.377 45.377 0 0 1 7.213-1.656c5.707-.809 12.463-.515 17.499 3.451l1.072-1.355c-5.598-4.408-12.95-4.638-18.817-3.806a46.934 46.934 0 0 0-7.493 1.72c-.96.304-1.745.587-2.31.805-.282.109-.511.202-.68.274a3.843 3.843 0 0 0-.387.182l.884 1.487Zm27.731.693c5.244 4.129 8.629 8.693 9.585 12.722.474 1.995.347 3.835-.41 5.448-.758 1.615-2.186 3.087-4.467 4.274l.802 1.531c2.542-1.322 4.283-3.044 5.234-5.071.951-2.028 1.073-4.276.526-6.578-1.083-4.567-4.807-9.436-10.198-13.681l-1.072 1.355Zm4.708 22.444c-2.233 1.161-4.326 1.323-6.14.827-1.824-.498-3.431-1.681-4.636-3.313-2.418-3.276-3.143-8.261-.777-12.687l-1.529-.814c-2.694 5.041-1.883 10.738.912 14.524 1.401 1.898 3.32 3.34 5.575 3.956 2.266.62 4.807.386 7.397-.962l-.802-1.531Zm-11.553-15.173c4.912-9.19 13.43-13.5 22.049-11.779l.337-1.694c-9.489-1.894-18.706 2.913-23.915 12.659l1.529.814Zm22.049-11.779c8.647 1.726 14.51 8.759 18.28 17.303l1.585-.694c-3.866-8.76-10.067-16.414-19.528-18.303l-.337 1.694Zm18.28 17.303c3.057 6.927 4.249 9.745 4.46 10.279l1.611-.631c-.225-.572-1.433-3.426-4.486-10.342l-1.585.694Z"/>
    <path stroke="#77A1F6" stroke-linecap="round" stroke-width="1.73" d="M57.185 111.166c4.812 2.668 16.83 7.49 26.407 5.432 11.971-2.572 19.564-8.015 19.889-16.724.326-8.71-5.694-13.033-9.917-8.528-4.223 4.505-2.524 14.806 8.261 19.125 8.628 3.456 13.685-.519 15.135-2.939"/>
    <path stroke="#FF6FC0" stroke-linecap="round" stroke-opacity=".988" stroke-width="1.73" d="M42.684 233.118c6.052-3.217 19.414-9.543 24.446-9.108 6.29.543 10.233 4.175 19.12-1.639 8.885-5.814 10.784-9.693 19.803-10.262 7.215-.455 16.809-.901 20.703-1.066"/>
    <g fill="#FF6FC0" clip-path="url(#b)">
      <path fill-rule="evenodd" d="M281.487 77.473c-1.415.748-2.489 2.275-4.637 5.33-2.148 3.053-3.222 4.58-3.448 6.165a6.668 6.668 0 0 0 .707 4.059c.749 1.415 2.276 2.489 5.33 4.636l4.362 3.069c3.054 2.148 4.581 3.221 6.166 3.448a6.677 6.677 0 0 0 4.059-.707c1.414-.749 2.488-2.276 4.636-5.33 2.148-3.054 3.222-4.581 3.448-6.165a6.66 6.66 0 0 0-.707-4.06c-.748-1.414-2.275-2.488-5.329-4.636l-4.363-3.068c-3.054-2.148-4.581-3.222-6.165-3.448a6.666 6.666 0 0 0-4.059.707Zm10.757 13.71a1 1 0 0 0-.454-1.948l-5.873 1.369-.201-1.728a1 1 0 1 0-1.986.23l.33 2.842a1 1 0 0 0 1.221.858l6.963-1.623Z" clip-rule="evenodd"/>
      <path d="M296.961 77.385c5.141 3.616 7.712 5.424 8.185 8.144.246 1.407-.12 2.774-1.03 4.478l-2.565 3.647-21.453-15.088 2.565-3.647c1.295-1.433 2.458-2.239 3.866-2.484 2.72-.474 5.291 1.334 10.432 4.95Z" opacity=".5"/>
    </g>
    <path fill="#3478FF" d="M178.902 26.816c7.361-.229 13.142-6.38 12.914-13.74-.229-7.361-6.381-13.143-13.741-12.914-7.36.228-13.142 6.38-12.913 13.74.228 7.36 6.38 13.142 13.74 12.914Z" opacity=".5"/>
    <path fill="#3478FF" d="M173.834 18.373a1 1 0 0 1 1.392-.25 5.688 5.688 0 0 0 3.438 1.03 5.69 5.69 0 0 0 3.368-1.242 1 1 0 1 1 1.24 1.569 7.687 7.687 0 0 1-4.546 1.672 7.69 7.69 0 0 1-4.641-1.387 1 1 0 0 1-.251-1.392ZM182.486 13.364c.736-.022 1.305-.936 1.271-2.04-.035-1.104-.659-1.98-1.395-1.958-.736.023-1.305.937-1.271 2.04.035 1.105.659 1.981 1.395 1.958ZM174.49 13.613c.736-.023 1.305-.937 1.271-2.04-.035-1.105-.659-1.981-1.395-1.958-.736.023-1.305.936-1.271 2.04.035 1.104.659 1.98 1.395 1.958Z"/>
    <g fill="#FFA17A" clip-path="url(#c)">
      <path d="m40.93 23.753 3.201-7.332c1.509-3.457 2.263-5.185 1.658-6.727-.529-1.349-1.916-2.095-4.568-3.27l-9.775-4.268C28.78 1.01 27.29.5 25.942 1.029c-1.543.605-2.297 2.333-3.806 5.789l-3.201 7.332c-1.509 3.456-2.263 5.184-1.659 6.726.605 1.543 2.334 2.297 5.79 3.806l7.331 3.201c3.457 1.51 5.185 2.264 6.727 1.659 1.543-.605 2.297-2.333 3.806-5.79Z" opacity=".5"/>
      <path d="M31.713 1.545A2 2 0 0 1 34.347.512l6.11 2.667a2 2 0 0 1 1.032 2.634l-.533 1.222a2 2 0 0 1-2.634 1.032L32.212 5.4a2 2 0 0 1-1.032-2.633l.533-1.222Z"/>
      <path fill-rule="evenodd" d="M25.84 9.165a1 1 0 0 1 1.317-.517l.61.267a1 1 0 0 1-.8 1.833l-.61-.267a1 1 0 0 1-.517-1.316Zm4.277 1.867a1 1 0 0 1 1.316-.516l7.943 3.467a1 1 0 0 1-.8 1.833l-7.943-3.467a1 1 0 0 1-.516-1.317Zm-6.144 2.41a1 1 0 0 1 1.317-.517l.61.267a1 1 0 0 1-.8 1.833l-.61-.267a1 1 0 0 1-.517-1.316Zm4.277 1.867a1 1 0 0 1 1.316-.516l7.943 3.467a1 1 0 1 1-.8 1.833l-7.943-3.468a1 1 0 0 1-.516-1.316Zm-6.144 2.41a1 1 0 0 1 1.316-.517l.611.267a1 1 0 0 1-.8 1.833l-.611-.267a1 1 0 0 1-.516-1.317Zm4.276 1.867a1 1 0 0 1 1.317-.517l7.943 3.468a1 1 0 0 1-.8 1.833l-7.943-3.468a1 1 0 0 1-.517-1.316Z" clip-rule="evenodd"/>
    </g>
    <g fill="#46B2AC" clip-path="url(#d)">
      <path d="m51.044 169.048-1.249-5.377a2.221 2.221 0 0 0-3.026-1.546l-6.365 2.686a1.11 1.11 0 0 1-1.51-.763l-1.284-5.312a6.376 6.376 0 0 0-1.134-2.378 2.18 2.18 0 0 0-1.931-.83l-.202.018a1.796 1.796 0 0 0-1.185.599 1.685 1.685 0 0 0-.412 1.357l.366 2.499c.117.795.138 1.601.065 2.402-.107 1.171-.573 2.268-1.095 3.321l-1.125 2.269a2.223 2.223 0 0 0 .027 2.025l5.867 11.117a2.222 2.222 0 0 0 2.827 1.011l5.71-2.411c4.277-1.805 6.669-6.325 5.656-10.687Z"/>
      <path fill-rule="evenodd" d="M26.276 169.691a1 1 0 0 1 1.313.437l7.02 13.299a1.649 1.649 0 1 1-2.978 1.411l-5.848-13.855a1 1 0 0 1 .493-1.292Z" clip-rule="evenodd" opacity=".5"/>
    </g>
    <g fill="#3478FF" clip-path="url(#e)">
      <path d="M168.377 162.177c1.487-6.107 2.23-9.161 4.59-10.596 2.359-1.435 5.412-.692 11.519.795s9.161 2.23 10.596 4.589c1.435 2.36.692 5.413-.795 11.52-1.487 6.107-2.231 9.161-4.59 10.596-2.359 1.435-5.412.692-11.519-.795s-9.161-2.231-10.596-4.59c-1.435-2.359-.692-5.412.795-11.519Z" opacity=".5"/>
      <path d="m181.204 168.097 2.412 3.965c.25.411.375.616.541.737.22.162.496.229.767.187.202-.031.408-.156.818-.406.411-.25.616-.375.737-.54a1.03 1.03 0 0 0 .187-.767c-.032-.203-.156-.408-.406-.819l-2.413-3.965 1.211-.737c1.24-.754 1.86-1.131 1.872-1.695.013-.565-.589-.97-1.793-1.779l-4.016-2.7c-2.403-1.615-3.604-2.422-4.45-1.908-.845.515-.68 1.953-.351 4.829l.552 4.807c.165 1.442.248 2.163.755 2.411.507.248 1.127-.129 2.366-.883l1.211-.737Z"/>
    </g>
  </g>
  <defs>
    <clipPath id="a">
      <path fill="#fff" d="M0 .465h328v242H0z"/>
    </clipPath>
    <clipPath id="b">
      <path fill="#fff" d="m285.408 66 26.175 18.409-18.41 26.175L267 92.174z"/>
    </clipPath>
    <clipPath id="c">
      <path fill="#fff" d="M23.805-7 53.132 5.804 40.328 35.13 11 22.327z"/>
    </clipPath>
    <clipPath id="d">
      <path fill="#fff" d="m17.713 159.578 29.481-12.444 12.444 29.481-29.481 12.444z"/>
    </clipPath>
    <clipPath id="e">
      <path fill="#fff" d="m169.57 146 31.092 7.57-7.57 31.092-31.092-7.57z"/>
    </clipPath>
  </defs>
</svg>