<svg xmlns="http://www.w3.org/2000/svg" fill="none" viewBox="0 0 1120 483">
  <g clip-path="url(#a)">
    <path fill="#1E1E1E" d="m871.047 100.103-3.408 3.821-7.433-6.63-15.204 17.044-3.582-3.195 18.612-20.865 11.015 9.825Zm1.896 24.097-2.583 2.895-4.899 5.492-3.373-3.008 1.171-1.314c-2.006.086-3.918-.654-5.381-1.959-1.403-1.251-2.347-2.897-2.679-4.748-.399-2.017.107-4.086 1.315-5.741 1.209-1.656 3.107-2.642 5.17-2.732a8.527 8.527 0 0 1 5.027 1.696 10.739 10.739 0 0 1 3.705 4.86c.1-.232.197-.521.294-.81.478-1.557.009-3.315-1.188-4.437a9.019 9.019 0 0 0-4.889-2.752l.073-3.687c3.1-.29 6.167.838 8.336 3.094 1.144 1.181 1.992 2.634 2.394 4.226a8.819 8.819 0 0 1-.228 4.942 12.491 12.491 0 0 1-2.265 3.983Zm-11.664-1.346c1.24 1.374 2.959 2.211 4.773 2.221l2.077-2.329c-.455-2.014-1.744-3.753-3.557-4.726-.793-.493-1.686-.754-2.646-.699-.731.098-1.329.529-1.689 1.173-.73 1.118-.032 2.92 1.042 4.36Zm32.64 10.998c.07 5.69-4.071 10.573-9.693 11.347a9.535 9.535 0 0 1-7.809-2.302 8.55 8.55 0 0 1-2.639-7.017l-6.709 7.522-3.373-3.009 18.452-20.686 3.373 3.009-1.997 2.239c2.409-.478 4.906.088 6.803 1.566 2.256 1.798 3.57 4.471 3.592 7.331Zm-10.226 6.476a5.443 5.443 0 0 0 4.083-1.933 5.57 5.57 0 0 0 1.283-4.322 6.343 6.343 0 0 0-1.837-3.89 6.806 6.806 0 0 0-4.225-2.054 5.29 5.29 0 0 0-2.562.288l-3.701 4.149c-.204.89-.176 1.88.075 2.801a6.794 6.794 0 0 0 2.71 3.811 6.316 6.316 0 0 0 4.174 1.15Zm23.239 14.19-2.583 2.896-4.899 5.492-3.373-3.008 1.172-1.314c-2.007.086-3.919-.654-5.382-1.959a8.312 8.312 0 0 1-2.679-4.748c-.398-2.017.107-4.086 1.316-5.741 1.208-1.656 3.107-2.643 5.17-2.732a8.517 8.517 0 0 1 5.026 1.696 10.74 10.74 0 0 1 3.706 4.86c.1-.232.196-.521.293-.81.478-1.557.009-3.315-1.188-4.437a9.016 9.016 0 0 0-4.888-2.752l.073-3.687a10.225 10.225 0 0 1 8.335 3.094c1.144 1.181 1.992 2.634 2.395 4.226a8.836 8.836 0 0 1-.228 4.942 12.497 12.497 0 0 1-2.266 3.982Zm-11.664-1.345c1.24 1.374 2.959 2.211 4.773 2.22l2.077-2.328c-.455-2.014-1.744-3.753-3.556-4.726-.793-.493-1.686-.754-2.646-.699-.731.098-1.33.529-1.69 1.173-.729 1.118-.031 2.92 1.042 4.36Zm30.182 5.16 3.373 3.009-13.792 15.463-3.373-3.009 5.512-6.179-5.941-5.299-5.511 6.179-3.373-3.009 13.792-15.462 3.373 3.009-5.085 5.701 5.94 5.299 5.085-5.702Zm18.79 16.761-3.195 3.582-4.567-4.074-10.598 11.88-3.373-3.009 10.598-11.88-4.567-4.074 3.195-3.582 12.507 11.157Zm12.735 11.36 3.553 3.168-13.82 15.493-3.373-3.009 8.388-9.403-14.776 3.705-3.671-3.275 13.819-15.492 3.373 3.008-8.494 9.523 15.001-3.718Zm18.186 19.867c.07 5.69-4.071 10.573-9.693 11.347a9.537 9.537 0 0 1-7.808-2.302 8.55 8.55 0 0 1-2.639-7.017l-6.71 7.522-3.373-3.009 18.452-20.686 3.373 3.009-1.997 2.238c2.409-.477 4.906.089 6.804 1.567 2.256 1.798 3.57 4.471 3.591 7.331Zm-10.226 6.476a5.445 5.445 0 0 0 4.083-1.933 5.568 5.568 0 0 0 1.283-4.322 6.335 6.335 0 0 0-1.837-3.89 6.8 6.8 0 0 0-4.225-2.054 5.285 5.285 0 0 0-2.561.288l-3.702 4.149c-.204.89-.176 1.88.075 2.801a6.798 6.798 0 0 0 2.711 3.811 6.313 6.313 0 0 0 4.173 1.15Zm27.993 9.64c.105 2.827-.87 5.602-2.764 7.665-3.411 3.764-9 4.622-13.37 2.01-4.4-2.639-6.318-7.94-4.609-12.741a10.715 10.715 0 0 1 11.642-6.982c5.058.76 8.841 4.992 9.101 10.048Zm-14.615 5.027a5.992 5.992 0 0 0 8.478-.371 6.145 6.145 0 0 0 1.091-6.691c-1.062-2.234-3.352-3.634-5.81-3.522-2.458.112-4.634 1.71-5.435 4.05a6.008 6.008 0 0 0 1.676 6.534Zm24.867 15.212c-.44 2.178-2.07 3.999-4.182 4.686-2.17.691-4.548.232-6.246-1.23l-6.716-5.991 13.792-15.462 6.062 5.405c1.5 1.557 2.14 3.787 1.61 5.886a5.894 5.894 0 0 1-4.15 4.288c-.08.033-.14.036-.19.039.15.785.14 1.578.02 2.379Zm-.64-9.143-2.53-2.263-2.187 2.447 2.507 2.237c.47.37 1.13.417 1.71.186.53-.228.87-.673.98-1.218a1.536 1.536 0 0 0-.48-1.389Zm-4.956 9.405c.642-.178 1.154-.632 1.344-1.266a1.987 1.987 0 0 0-.395-1.961l-.869-.828-2.477-2.21-2.583 2.895 3.283 2.929a1.709 1.709 0 0 0 1.697.441Zm22.776 12.756-2.59 2.895-4.9 5.493-3.37-3.009 1.17-1.313c-2 .086-3.92-.655-5.38-1.96a8.363 8.363 0 0 1-2.68-4.748c-.4-2.017.11-4.085 1.32-5.741 1.21-1.655 3.11-2.642 5.17-2.731 1.81.009 3.58.617 5.02 1.696a10.68 10.68 0 0 1 3.71 4.859c.1-.232.2-.521.29-.81.48-1.557.01-3.315-1.18-4.436a9.034 9.034 0 0 0-4.89-2.753l.07-3.687c3.1-.29 6.17.838 8.34 3.094 1.14 1.181 1.99 2.634 2.39 4.226a8.742 8.742 0 0 1-.23 4.943 12.512 12.512 0 0 1-2.26 3.982Zm-11.67-1.346c1.24 1.374 2.96 2.211 4.78 2.221l2.07-2.328c-.45-2.014-1.74-3.754-3.55-4.727-.8-.493-1.69-.754-2.65-.699-.73.099-1.33.529-1.69 1.173-.73 1.118-.03 2.92 1.04 4.36Zm30.18 5.161 3.38 3.009-13.79 15.462-3.38-3.009 5.51-6.179-5.94-5.298-5.51 6.179-3.37-3.009 13.79-15.463 3.37 3.009-5.08 5.702 5.94 5.298 5.08-5.701Zm15.6 13.911 3.37 3.009-13.79 15.462-3.37-3.008 5.51-6.179-5.94-5.299-5.51 6.179-3.38-3.009 13.8-15.462 3.37 3.009-5.09 5.701 5.94 5.299 5.09-5.702Zm17.98 19.951c.11 2.828-.87 5.603-2.76 7.666-3.41 3.764-9 4.621-13.37 2.009-4.4-2.638-6.32-7.94-4.61-12.74 1.73-4.83 6.61-7.715 11.64-6.982 5.06.759 8.84 4.991 9.1 10.047Zm-14.61 5.028a5.984 5.984 0 0 0 8.47-.371 6.14 6.14 0 0 0 1.09-6.692c-1.06-2.234-3.35-3.633-5.81-3.521-2.45.112-4.63 1.709-5.43 4.05-.83 2.314-.17 4.883 1.68 6.534ZM101.499 114.902l1.267 4.961-7.48 1.909 5.65 22.13-4.69 1.198-5.65-22.13-7.48 1.91-1.266-4.961 19.649-5.017Zm26.615.676 5.136 20.115-4.418 1.128-5.136-20.115 4.418-1.128Zm-3.504 18.936a6.443 6.443 0 0 1-4.508 4.495l-7.945 2.028-5.126-20.076 4.379-1.118 1.999 7.829c1.25-.278 2.403-.614 3.76-.96 2.18-.515 4.453.143 5.985 1.774a6.144 6.144 0 0 1 1.456 6.028Zm-4.421-1.307a2.003 2.003 0 0 0-.3-1.823 2.067 2.067 0 0 0-1.886-.757c-1.095.239-2.412.575-3.614.882l.96 3.759 3.527-.9a1.71 1.71 0 0 0 1.313-1.161Zm30.473-8.814 3.47 1.302c-1.297 4.46-5.492 7.43-10.122 7.085-4.629-.345-8.478-3.615-9.626-8.111-1.148-4.495.662-9.21 4.559-11.732 3.898-2.523 9.004-1.928 12.28 1.364l-2.421 2.806c-2.219-1.415-5.072-1.429-7.325-.07-2.264 1.321-3.405 3.966-2.752 6.524s2.923 4.332 5.542 4.406c2.63.113 5.126-1.268 6.395-3.574Zm11.658-17.549 4.379-1.119 5.127 20.076-4.38 1.119-1.92-7.519-1.317.336-2.499 8.647-5.271 1.346 2.737-9.492c-1.059-.266-2.061-.795-2.831-1.548-1.686-1.592-2.416-3.965-1.836-6.219a6.625 6.625 0 0 1 4.478-4.776l3.333-.851Zm-.874 9.512 3.101-.792-1.039-4.07-3.179.812c-.658.168-1.151.665-1.351 1.336-.2.67-.051 1.417.417 1.958a2.256 2.256 0 0 0 2.051.756Zm19.871-14.363 4.379-1.118 5.137 20.114-4.38 1.119-2.009-7.868a10.366 10.366 0 0 1-3.496 1.182 8.59 8.59 0 0 1-5.943-1.125c-1.781-1.155-3.022-2.944-3.431-5.027l-1.109-4.506 4.147-1.059 1.206 4.398c.17.989.727 1.879 1.525 2.418.905.471 1.944.66 2.923.451a9.843 9.843 0 0 0 3.06-1.111l-2.009-7.868Zm20.975-5.356 4.612-1.178 5.137 20.115-4.38 1.118-3.117-12.208-5.177 14.326-4.767 1.217-5.136-20.114 4.38-1.119L197 111.158l5.292-14.521Zm40.223-.486.96 3.759 1.821 7.131-4.38 1.118-.435-1.705c-1.049 1.713-2.731 2.886-4.63 3.37-1.822.466-3.715.33-5.435-.428-1.896-.796-3.33-2.37-4.029-4.297-.698-1.927-.457-4.053.621-5.815a8.518 8.518 0 0 1 4.214-3.222 10.73 10.73 0 0 1 6.1-.36 10.933 10.933 0 0 0-.508-.697 4.387 4.387 0 0 0-4.344-1.491 9.018 9.018 0 0 0-5.013 2.518l-3.018-2.119a10.229 10.229 0 0 1 7.221-5.188c1.619-.29 3.298-.181 4.843.374a8.829 8.829 0 0 1 3.973 2.948 12.502 12.502 0 0 1 2.039 4.104Zm-7.629 8.925c1.832-.262 3.486-1.221 4.507-2.72l-.772-3.023c-1.925-.747-4.088-.649-5.907.31-.852.384-1.566.979-2.057 1.806-.327.661-.303 1.399.03 2.057.52 1.229 2.404 1.656 4.199 1.57Zm21.134-22.158 4.379-1.118 5.126 20.076-4.379 1.118-2.049-8.023-7.712 1.97 2.048 8.022-4.379 1.119-5.127-20.076 4.38-1.118 1.89 7.402 7.713-1.97-1.89-7.402Zm19.583 5.32 11.256 8.19-5.891 1.504-9.523-6.898 2.227 8.72-4.379 1.118-5.117-20.037 4.38-1.118 2.068 8.1-.01-.039 4.685-9.783 5.969-1.524-5.665 11.767Zm29.111-9.002c.236.6.423 1.172.581 1.792l.069.272.193 1.56-15.697 4.008c.137.213.274.426.459.668a6.65 6.65 0 0 0 3.699 2.358c.738.142 1.534.186 2.29.076.843-.092 1.647-.338 2.47-.672a9.165 9.165 0 0 0 3.749-3.104l3.008 2.08a11.192 11.192 0 0 1-5.137 4.78c-1.055.558-2.207.894-3.351 1.103-1.26.24-2.541.236-3.793.02-2.544-.425-4.792-1.79-6.413-3.772-1.591-2.029-2.477-4.528-2.422-7.06.082-5.016 3.621-9.264 8.496-10.22a10.578 10.578 0 0 1 11.799 6.111Zm-15.813 4.038 11.356-2.9c-1.283-2.438-4.123-3.694-6.797-3.012-2.713.693-4.602 3.157-4.559 5.912Zm31.898-16.897 1.188 4.65-5.93 1.515 3.939 15.425-4.38 1.118-3.939-15.425-5.929 1.514-1.188-4.65 16.239-4.147ZM453.745 252.202l21.552-1.954 2.524 27.846-4.82.437-2.062-22.747-11.951 1.084 2.062 22.746-4.78.434-2.525-27.846Zm44.39 5.976c4.203 3.836 4.941 10.195 1.666 14.83a9.536 9.536 0 0 1-7.016 4.131 8.55 8.55 0 0 1-6.927-2.867l.91 10.039-4.501.408-2.504-27.606 4.502-.409.271 2.988c1.297-2.085 3.416-3.523 5.792-3.899 2.853-.419 5.703.447 7.807 2.385Zm-2.256 11.892a5.446 5.446 0 0 0 1.378-4.302 5.574 5.574 0 0 0-2.281-3.89 6.338 6.338 0 0 0-4.096-1.315 6.797 6.797 0 0 0-4.385 1.683 5.288 5.288 0 0 0-1.54 2.067l.502 5.538a5.85 5.85 0 0 0 2.096 1.858 6.807 6.807 0 0 0 4.636.624 6.315 6.315 0 0 0 3.69-2.263Zm26.162-13.859c2.136 1.855 3.497 4.463 3.71 7.255.419 5.063-2.772 9.73-7.665 11.137-4.933 1.412-10.115-.809-12.453-5.337a10.715 10.715 0 0 1 2.853-13.272c4.01-3.175 9.685-3.047 13.555.217Zm-6.312 14.108a5.993 5.993 0 0 0 5.521-6.445 6.147 6.147 0 0 0-4.142-5.368c-2.357-.75-4.943-.034-6.541 1.838-1.597 1.872-1.916 4.552-.754 6.736a6.008 6.008 0 0 0 5.916 3.239Zm28.095-7.769a6.285 6.285 0 0 1 .567 6.254c-.978 2.057-2.937 3.48-5.165 3.722l-8.963.813-1.871-20.636 8.087-.733c2.166-.036 4.23 1.022 5.399 2.844a5.89 5.89 0 0 1 .299 5.957c-.033.084-.069.127-.105.171.681.42 1.253.97 1.752 1.608Zm-7.111-5.782-3.386.307.296 3.267 3.347-.303c.594-.094 1.075-.54 1.304-1.123a1.658 1.658 0 0 0-.221-1.546 1.53 1.53 0 0 0-1.34-.602Zm3.482 10.047c.308-.59.326-1.275-.007-1.847a1.984 1.984 0 0 0-1.702-1.05l-1.199.068-3.306.3.35 3.864 4.382-.397a1.712 1.712 0 0 0 1.482-.938Zm27.696-9.178c.137.63.231 1.224.289 1.861l.025.279-.058 1.572-16.134 1.463c.101.231.203.463.347.731a6.655 6.655 0 0 0 3.277 2.916c.706.257 1.485.428 2.249.439.847.044 1.68-.072 2.546-.271a9.167 9.167 0 0 0 4.194-2.469l2.64 2.532a11.204 11.204 0 0 1-5.832 3.903c-1.13.383-2.321.531-3.484.556a10.603 10.603 0 0 1-3.748-.583c-2.444-.823-4.446-2.529-5.731-4.742-1.249-2.257-1.727-4.864-1.27-7.356.878-4.939 5.047-8.57 10.012-8.74a10.579 10.579 0 0 1 10.678 7.909Zm-16.254 1.473 11.672-1.058c-.879-2.611-3.482-4.303-6.231-4.054-2.789.253-5.045 2.385-5.441 5.112Zm37.258-9.162c4.204 3.836 4.941 10.196 1.666 14.83a9.536 9.536 0 0 1-7.015 4.131 8.551 8.551 0 0 1-6.928-2.866l.911 10.039-4.502.408-2.503-27.607 4.501-.408.271 2.988c1.297-2.086 3.416-3.523 5.792-3.899 2.854-.42 5.704.446 7.807 2.384Zm-2.255 11.893a5.447 5.447 0 0 0 1.377-4.302 5.572 5.572 0 0 0-2.281-3.89 6.33 6.33 0 0 0-4.095-1.316 6.807 6.807 0 0 0-4.386 1.683 5.291 5.291 0 0 0-1.54 2.068l.503 5.537a5.832 5.832 0 0 0 2.096 1.858 6.794 6.794 0 0 0 4.635.624 6.317 6.317 0 0 0 3.691-2.262Zm29.412-8.571c.138.63.232 1.224.29 1.861l.025.279-.058 1.572-16.134 1.462c.101.232.202.464.347.732a6.655 6.655 0 0 0 3.277 2.916c.706.257 1.485.428 2.249.439.847.043 1.68-.072 2.546-.271a9.167 9.167 0 0 0 4.194-2.469l2.639 2.532a11.19 11.19 0 0 1-5.831 3.902c-1.13.384-2.322.532-3.484.557a10.582 10.582 0 0 1-3.748-.584c-2.444-.822-4.447-2.528-5.732-4.741-1.249-2.257-1.726-4.864-1.269-7.356.877-4.939 5.047-8.57 10.012-8.74a10.577 10.577 0 0 1 10.677 7.909Zm-16.253 1.473 11.672-1.058c-.879-2.611-3.483-4.303-6.231-4.054-2.789.253-5.046 2.385-5.441 5.112Zm31.627-11.382 4.502-.408 1.871 20.635-4.502.408-.748-8.246-7.927.719.748 8.246-4.502.408-1.871-20.635 4.502-.408.689 7.608 7.928-.718-.69-7.609Zm20.813-1.887 4.502-.409 1.871 20.636-4.502.408-.748-8.246-7.927.719.748 8.246-4.502.408-1.871-20.635 4.502-.409.689 7.609 7.928-.719-.69-7.608Zm30.055-2.726 1.875 20.675-4.541.412-1.875-20.675 4.541-.412Zm-6.468 18.139a6.444 6.444 0 0 1-5.165 3.721l-8.167.741-1.871-20.636 4.502-.408.729 8.047c1.279-.076 2.47-.224 3.864-.35 2.235-.163 4.375.848 5.627 2.703a6.141 6.141 0 0 1 .481 6.182Zm-4.157-1.993a2.005 2.005 0 0 0-.007-1.847A2.068 2.068 0 0 0 669.92 252c-1.119.061-2.473.184-3.708.296l.35 3.864 3.625-.329a1.711 1.711 0 0 0 1.482-.937Zm36.155-9.946c.138.63.232 1.224.29 1.862l.025.278-.058 1.572-16.134 1.463c.101.232.202.464.347.732a6.655 6.655 0 0 0 3.277 2.916c.706.257 1.485.427 2.249.438.847.044 1.68-.072 2.546-.271a9.17 9.17 0 0 0 4.194-2.468l2.639 2.532a11.195 11.195 0 0 1-5.831 3.902c-1.13.384-2.322.532-3.484.557a10.604 10.604 0 0 1-3.748-.584c-2.444-.823-4.447-2.529-5.732-4.742-1.249-2.256-1.726-4.864-1.269-7.355.877-4.94 5.047-8.571 10.012-8.74a10.576 10.576 0 0 1 10.677 7.908Zm-16.253 1.474 11.672-1.058c-.879-2.612-3.483-4.304-6.231-4.054-2.789.253-5.046 2.385-5.441 5.112ZM506.34 305.631c4.204 3.836 4.941 10.195 1.666 14.83a9.532 9.532 0 0 1-7.015 4.13 8.547 8.547 0 0 1-6.928-2.866l.911 10.039-4.502.408-2.503-27.606 4.501-.409.271 2.988c1.297-2.086 3.416-3.523 5.792-3.899 2.854-.419 5.704.447 7.807 2.385Zm-2.255 11.892a5.445 5.445 0 0 0 1.377-4.302 5.574 5.574 0 0 0-2.281-3.89 6.336 6.336 0 0 0-4.095-1.315 6.801 6.801 0 0 0-4.386 1.683 5.288 5.288 0 0 0-1.54 2.067l.502 5.537a5.855 5.855 0 0 0 2.097 1.859 6.805 6.805 0 0 0 4.635.624 6.314 6.314 0 0 0 3.691-2.263Zm26.238-7.279.35 3.864.665 7.33-4.502.408-.159-1.753c-1.307 1.525-3.154 2.415-5.106 2.592-1.873.17-3.72-.265-5.298-1.287-1.746-1.086-2.911-2.868-3.295-4.882-.383-2.014.193-4.074 1.537-5.642a8.518 8.518 0 0 1 4.672-2.512 10.734 10.734 0 0 1 6.081.613 11.468 11.468 0 0 0-.391-.767 4.386 4.386 0 0 0-4.052-2.163 9.008 9.008 0 0 0-5.349 1.69l-2.643-2.572a10.228 10.228 0 0 1 7.953-3.975c1.644-.028 3.285.345 4.722 1.138a8.829 8.829 0 0 1 3.454 3.543 12.496 12.496 0 0 1 1.361 4.375Zm-8.95 7.599c1.85.033 3.636-.651 4.882-1.969l-.282-3.107c-1.782-1.043-3.933-1.29-5.881-.631-.902.242-1.702.716-2.318 1.455-.428.601-.522 1.332-.298 2.035.319 1.297 2.111 2.018 3.897 2.217Zm33.119-8.746a8.944 8.944 0 0 1-.979 6.033c-1.924 3.588-5.789 5.706-9.87 5.433-4.081-.272-7.612-2.884-9.085-6.727-.55-1.637-.944-3.328-1.103-5.081a22.386 22.386 0 0 1-.107-5.171 11.5 11.5 0 0 1 1.837-5.428c1.108-1.507 2.561-2.763 4.252-3.599 1.46-.735 2.93-1.35 4.495-1.813a8.97 8.97 0 0 0 3.028-2.042l2.896 2.267a11.268 11.268 0 0 1-4.082 3.704 39.715 39.715 0 0 0-3.962 1.926 6.979 6.979 0 0 0-3.818 5.286c.666-.622 1.42-1.173 2.267-1.571 3.691-1.821 8.123-1.218 11.143 1.52a9.624 9.624 0 0 1 3.088 5.263Zm-4.999 3.787a4 4 0 0 0-1.132-5.4 6.878 6.878 0 0 0-6.2-1.045 7.093 7.093 0 0 0-3.846 3.643c.141.67.322 1.336.542 1.999a6.106 6.106 0 0 0 5.117 3.713 6.297 6.297 0 0 0 5.519-2.91Zm25.336-13.262c2.136 1.854 3.497 4.462 3.71 7.254.419 5.063-2.772 9.73-7.665 11.138-4.933 1.411-10.115-.81-12.453-5.337a10.714 10.714 0 0 1 2.853-13.272c4.01-3.175 9.685-3.047 13.555.217Zm-6.312 14.107a5.993 5.993 0 0 0 5.521-6.445 6.148 6.148 0 0 0-4.142-5.368c-2.357-.75-4.943-.033-6.54 1.839-1.598 1.871-1.917 4.551-.755 6.735a6.007 6.007 0 0 0 5.916 3.239Zm27.643-18.974.434 4.781-6.095.552 1.437 15.855-4.501.409-1.438-15.855-6.095.552-.433-4.78 16.691-1.514Zm16.239-1.472 4.502-.408 1.871 20.635-4.502.408-.747-8.246-7.928.719.748 8.246-4.502.408-1.871-20.635 4.502-.408.69 7.608 7.927-.718-.69-7.609Zm21.57-1.956 4.741-.43 1.875 20.675-4.502.409-1.138-12.549-7.387 13.322-4.9.444-1.875-20.675 4.502-.409 1.152 12.708 7.532-13.495Zm18.666 8.349 9.812 9.874-6.055.549-8.306-8.324.813 8.963-4.501.408-1.868-20.595 4.502-.408.755 8.325-.004-.039 6.18-8.915 6.135-.556-7.463 10.718Zm24.944-12.303 4.741-.43 1.875 20.675-4.502.408-1.138-12.548-7.387 13.321-4.9.445-1.874-20.676 4.501-.408 1.152 12.708 7.532-13.495ZM665.394 105.49c3.002 2.198 4.205 6.138 2.974 9.649a8.462 8.462 0 0 1-8.35 5.676 7.184 7.184 0 0 1-2.572-.521l-7.662-2.688 9.255-26.384 13.928 4.886-1.695 4.832-9.398-3.297-1.947 5.548 3.133 1.099c.83.291 1.621.696 2.334 1.2Zm-5.057 10.308-.013.037c1.567.126 2.985-.775 3.501-2.247.517-1.472-.014-3.1-1.329-3.943a3.198 3.198 0 0 0-1.131-.524l-3.133-1.099-2.237 6.379 3.132 1.099c.402.184.793.278 1.21.298Zm36.264-3.726-6.872 19.589-4.303-1.509 6.872-19.59 4.303 1.51Zm-13.411 13.819a6.442 6.442 0 0 1-6.243 1.244l-7.738-2.715 6.859-19.551 4.265 1.496-2.675 7.624c1.195.462 2.34.821 3.662 1.285 2.1.779 3.628 2.586 3.998 4.793a6.14 6.14 0 0 1-2.128 5.824Zm-2.955-3.537c.525-.41.788-1.038.76-1.684a2.07 2.07 0 0 0-1.151-1.675 110.349 110.349 0 0 0-3.497-1.269l-1.284 3.661 3.435 1.205c.591.25 1.263.146 1.737-.238Zm30.249 9.551 2.167 3.007c-3.551 2.993-8.689 3.141-12.351.288-3.663-2.853-5.054-7.708-3.518-12.086 1.536-4.378 5.655-7.3 10.297-7.24 4.642.06 8.562 3.385 9.465 7.941l-3.571.994c-1.062-2.407-3.429-4-6.058-4.117-2.616-.155-5.032 1.414-5.906 3.905-.874 2.491.032 5.225 2.172 6.739 2.126 1.551 4.969 1.785 7.303.569Zm25.631-5.972-1.589 4.529-5.775-2.025-5.27 15.022-4.265-1.496 5.27-15.023-5.775-2.025 1.589-4.53 15.815 5.548Zm18.889 9.509c2.233 5.234.265 11.326-4.637 14.184a9.533 9.533 0 0 1-8.097.848 8.547 8.547 0 0 1-5.114-5.482l-3.337 9.512-4.265-1.496 9.176-26.158 4.265 1.497-.993 2.831c2.046-1.36 4.57-1.789 6.888-1.145 2.77.802 5.004 2.773 6.114 5.409Zm-6.986 9.884a5.445 5.445 0 0 0 3.038-3.342 5.575 5.575 0 0 0-.461-4.486 6.34 6.34 0 0 0-3.181-2.896 6.803 6.803 0 0 0-4.689-.288 5.282 5.282 0 0 0-2.259 1.242l-1.84 5.246c.15.901.554 1.806 1.136 2.561a6.798 6.798 0 0 0 3.959 2.491 6.317 6.317 0 0 0 4.297-.528Zm29.554-1.756c1.174 2.574 1.33 5.512.366 8.141-1.72 4.78-6.56 7.702-11.596 6.953-5.074-.762-8.867-4.933-9.116-10.023a10.715 10.715 0 0 1 8.102-10.892c4.966-1.225 10.076 1.246 12.244 5.821Zm-11.596 10.218a5.991 5.991 0 0 0 7.696-3.574 6.145 6.145 0 0 0-1.541-6.602c-1.834-1.661-4.484-2.082-6.714-1.041-2.23 1.04-3.632 3.346-3.481 5.815a6.007 6.007 0 0 0 4.04 5.402ZM358.246 176.018l.986 4.829-12.289 2.509-.986-4.829 12.289-2.509Zm-19.347 11.257 5.999-1.225c.435 1.612 1.197 2.737 2.284 3.375 1.087.638 2.53.774 4.33.406 1.466-.299 2.561-.88 3.283-1.743.723-.863 1.143-1.978 1.26-3.345.115-1.377-.012-2.97-.381-4.779l-.472-2.31c-.381-1.865-.92-3.393-1.617-4.585-.691-1.202-1.544-2.043-2.559-2.522-1.007-.48-2.192-.581-3.556-.303-1.346.275-2.371.697-3.076 1.266-.706.569-1.162 1.271-1.368 2.106-.208.825-.245 1.78-.111 2.864l-5.998 1.225c-.198-1.912-.004-3.711.58-5.396.591-1.696 1.622-3.153 3.094-4.372 1.481-1.22 3.441-2.08 5.881-2.578 2.422-.494 4.636-.371 6.643.369 2.007.74 3.704 2.022 5.091 3.846 1.387 1.824 2.363 4.118 2.928 6.883l.471 2.311c.565 2.764.575 5.251.03 7.46-.537 2.197-1.58 4.024-3.128 5.481-1.551 1.447-3.555 2.422-6.014 2.924-2.348.479-4.444.482-6.29.008-1.848-.482-3.394-1.356-4.638-2.619-1.246-1.273-2.134-2.855-2.666-4.747Zm29.711 3.661-4.365-21.377 5.929-1.211 1.693 8.295 1.67-.341 4.124-9.482 6.959-1.421-5.392 12.148 9.84 9.212-7.042 1.438-6.823-6.508-2.213.452 1.548 7.585-5.928 1.21Zm31.827-6.063c-2.162.441-4.125.363-5.89-.233-1.757-.608-3.232-1.65-4.422-3.127-1.193-1.487-2.013-3.325-2.46-5.515-.451-2.208-.418-4.225.098-6.051.515-1.835 1.462-3.372 2.843-4.611 1.387-1.249 3.162-2.095 5.324-2.536 2.162-.442 4.122-.359 5.879.249 1.765.596 3.244 1.638 4.436 3.124 1.191 1.478 2.012 3.32 2.463 5.529.447 2.189.413 4.202-.101 6.037-.517 1.826-1.469 3.364-2.857 4.613-1.38 1.239-3.151 2.079-5.313 2.521Zm-.91-4.599c.984-.201 1.748-.647 2.293-1.338.543-.7.882-1.572 1.017-2.614.145-1.045.09-2.188-.164-3.432-.254-1.243-.652-2.317-1.194-3.221-.533-.906-1.186-1.575-1.961-2.006-.774-.431-1.653-.547-2.636-.346-.993.203-1.771.656-2.332 1.36-.553.703-.901 1.576-1.046 2.621-.135 1.042-.075 2.185.179 3.428.253 1.243.647 2.318 1.18 3.224.542.904 1.205 1.571 1.988 2.001.791.418 1.683.526 2.676.323Zm27.414-14.847.952 4.663-11.162 2.279-.952-4.663 11.162-2.279Zm-10.913-6.441 4.365 21.377-5.665 1.157-4.364-21.378 5.664-1.156Zm12.929-2.64 4.365 21.377-5.623 1.148-4.364-21.377 5.622-1.148Zm18.709 18.883c-2.162.442-4.125.364-5.89-.232-1.758-.608-3.232-1.65-4.423-3.128-1.192-1.486-2.012-3.324-2.459-5.514-.451-2.208-.419-4.225.098-6.051.514-1.835 1.462-3.372 2.842-4.611 1.388-1.25 3.163-2.095 5.325-2.537 2.162-.441 4.121-.358 5.879.25 1.765.596 3.243 1.638 4.436 3.124 1.191 1.478 2.012 3.32 2.463 5.528.447 2.19.413 4.203-.101 6.038-.517 1.825-1.469 3.363-2.857 4.613-1.38 1.239-3.151 2.079-5.313 2.52Zm-.91-4.598c.983-.201 1.748-.647 2.293-1.338.543-.701.882-1.572 1.017-2.614.145-1.045.09-2.189-.164-3.432-.254-1.243-.652-2.317-1.194-3.221-.533-.906-1.187-1.575-1.961-2.006-.774-.432-1.653-.547-2.637-.346-.993.203-1.77.656-2.332 1.36-.552.703-.9 1.576-1.045 2.62-.135 1.043-.076 2.186.178 3.429.254 1.243.648 2.318 1.18 3.224.543.904 1.206 1.571 1.989 2 .791.419 1.683.527 2.676.324Zm26.5-7.89 2.763-16.004 4.509-.921-3.971 23.08-3.939.804-12.507-19.715 4.496-.918 8.649 13.674Zm-9.999-13.398 4.365 21.377-5.665 1.156-4.365-21.377 5.665-1.156Zm18.602 18.47-4.365-21.377 5.595-1.143 4.365 21.377-5.595 1.143Zm22.393-18.171.952 4.662-11.162 2.279-.952-4.662 11.162-2.279Zm-10.913-6.442 4.365 21.378-5.664 1.156-4.365-21.377 5.664-1.157Zm12.929-2.639 4.365 21.377-5.622 1.148-4.365-21.377 5.622-1.148Zm18.709 18.883c-2.162.441-4.125.364-5.89-.233-1.758-.607-3.232-1.65-4.423-3.127-1.192-1.487-2.012-3.325-2.459-5.514-.451-2.209-.418-4.226.098-6.051.514-1.836 1.462-3.372 2.842-4.611 1.388-1.25 3.163-2.096 5.325-2.537 2.162-.441 4.121-.358 5.879.249 1.765.597 3.244 1.638 4.436 3.125 1.191 1.477 2.012 3.32 2.463 5.528.447 2.19.413 4.202-.101 6.037-.517 1.826-1.469 3.364-2.857 4.614-1.38 1.238-3.151 2.079-5.313 2.52Zm-.91-4.598c.983-.201 1.748-.647 2.293-1.339.543-.7.882-1.571 1.017-2.614.145-1.044.09-2.188-.164-3.431-.254-1.244-.652-2.317-1.194-3.221-.533-.906-1.187-1.575-1.961-2.007-.774-.431-1.653-.546-2.637-.346-.992.203-1.77.657-2.331 1.361-.553.702-.901 1.576-1.046 2.62-.135 1.042-.075 2.185.178 3.428.254 1.244.648 2.318 1.181 3.224.542.905 1.205 1.571 1.988 2.001.791.418 1.683.526 2.676.324ZM830.854 320.927l-1.149 4.99-7.523-1.733-5.126 22.258-4.716-1.086 5.125-22.258-7.523-1.732 1.149-4.99 19.763 4.551Zm22.873 29.28 2.261.521-2.056 8.926-4.405-1.014.97-4.21-22.218-5.116 4.658-20.231 4.405 1.014-3.573 15.514 5.575 1.284 3.572-15.514 4.444 1.023-3.573 15.514 5.535 1.275 3.573-15.514 4.405 1.015-3.573 15.513Zm23.224-1.506-.871 3.781-1.652 7.172-4.405-1.014.395-1.715c-1.717 1.041-3.75 1.312-5.66.872a8.307 8.307 0 0 1-4.633-2.873c-1.32-1.577-1.872-3.633-1.61-5.666.263-2.033 1.453-3.811 3.218-4.883a8.522 8.522 0 0 1 5.223-.931 10.727 10.727 0 0 1 5.586 2.477 11.094 11.094 0 0 0-.132-.852 4.387 4.387 0 0 0-3.177-3.317 9.017 9.017 0 0 0-5.609-.061l-1.711-3.267a10.23 10.23 0 0 1 8.796-1.299c1.572.485 3.014 1.351 4.133 2.552a8.836 8.836 0 0 1 2.179 4.443 12.518 12.518 0 0 1-.07 4.581Zm-10.873 4.433c1.749.608 3.658.514 5.253-.35l.7-3.041c-1.368-1.546-3.335-2.451-5.392-2.432-.932-.05-1.84.151-2.656.661-.593.438-.911 1.104-.916 1.841-.102 1.332 1.377 2.575 3.011 3.321Zm30.828-9.566-1.077 4.678-5.964-1.373-3.572 15.513-4.405-1.014 3.573-15.514-5.964-1.373 1.077-4.678 16.332 3.761Zm20.388 13.397a14.978 14.978 0 0 1-.305 1.859l-.063.273-.545 1.476-15.787-3.636c.024.252.048.504.102.803a6.653 6.653 0 0 0 2.206 3.792c.591.464 1.277.869 2 1.117.792.306 1.619.455 2.504.536a9.157 9.157 0 0 0 4.754-1.04l1.72 3.229a11.204 11.204 0 0 1-6.757 1.892c-1.194.012-2.372-.218-3.484-.557a10.599 10.599 0 0 1-3.38-1.722c-2.066-1.543-3.438-3.788-3.969-6.291-.484-2.533-.126-5.16 1.085-7.385 2.372-4.42 7.465-6.572 12.236-5.186a10.577 10.577 0 0 1 7.683 10.84Zm-15.904-3.662 11.421 2.63c-.022-2.755-1.969-5.174-4.659-5.793-2.728-.629-5.537.695-6.762 3.163Zm23.063-3.268 12.084 2.783-4.659 20.231-4.443-1.024 3.581-15.553-3.313-.763a52.695 52.695 0 0 1-1.967 5.869 21.405 21.405 0 0 1-2.831 5.341 6.742 6.742 0 0 1-6.352 2.806l.068-3.679c1.121-.234 2.167-.856 2.877-1.8a18.324 18.324 0 0 0 2.085-4.241 82.307 82.307 0 0 0 1.676-5.319c.336-1.277.782-2.858 1.194-4.651Zm26.703 17.52c.652 2.161.113 4.5-1.409 6.12-1.57 1.649-3.876 2.391-6.076 1.966l-8.03-1.849 4.659-20.23 4.404 1.014-1.813 7.874c1.23.365 2.417.556 3.772.91a6.3 6.3 0 0 1 4.493 4.195Zm-4.777 2.922c.476-.465.707-1.109.568-1.757a2.066 2.066 0 0 0-1.328-1.537 108.133 108.133 0 0 0-3.617-.874l-.87 3.781 3.586.826a1.69 1.69 0 0 0 1.661-.439Zm24.05-9.977 4.404 1.014-4.65 20.192-4.404-1.015 1.858-8.068-7.757-1.787-1.858 8.069-4.405-1.014 4.65-20.192 4.405 1.015-1.715 7.445 7.757 1.786 1.715-7.445Zm29.408 6.773-4.659 20.23-4.443-1.023 4.659-20.231 4.443 1.024Zm-11.796 15.22a6.443 6.443 0 0 1-6.068 1.928l-7.991-1.84 4.65-20.192 4.405 1.015-1.813 7.874c1.238.326 2.416.556 3.781.87 2.174.542 3.892 2.169 4.505 4.322a6.142 6.142 0 0 1-1.469 6.023Zm-3.33-3.188a2.004 2.004 0 0 0 .569-1.757 2.067 2.067 0 0 0-1.329-1.538c-1.082-.29-2.408-.595-3.616-.873l-.871 3.781 3.547.816a1.71 1.71 0 0 0 1.7-.429Zm31.759-8.202 4.64 1.068-4.66 20.23-4.41-1.014 2.83-12.279-11.17 10.358-4.793-1.104 4.663-20.231 4.4 1.015-2.86 12.434 11.36-10.477Zm2.6-5.764c-.97 2.609-3.74 4.106-6.43 3.487a5.52 5.52 0 0 1-4.26-5.908l3.65.349c-.08.885.54 1.766 1.44 1.973.89.206 1.8-.325 2.11-1.156l3.49 1.255Zm-180.711 14.003 16.567 3.815-4.65 20.191-4.405-1.014 3.573-15.514-7.757-1.786-3.573 15.514-4.405-1.015 4.65-20.191Zm37.524 11.638c1.452 2.428 1.933 5.329 1.266 8.049-1.179 4.942-5.666 8.382-10.754 8.196-5.127-.196-9.359-3.92-10.17-8.951a10.715 10.715 0 0 1 6.845-11.723c4.799-1.768 10.152.122 12.813 4.429Zm-10.392 11.439a5.992 5.992 0 0 0 7.253-4.404 6.146 6.146 0 0 0-2.263-6.391c-2.007-1.447-4.687-1.572-6.788-.291-2.101 1.281-3.239 3.728-2.816 6.165a6.007 6.007 0 0 0 4.614 4.921Zm29.519 6.47 2.69.619-2.083 9.044-4.444-1.024.997-4.327-11.733-2.702-.997 4.327-4.404-1.014 2.082-9.043 2.3.529c.111-.303.3-.588.449-.881 2.043-3.881 3.567-8.004 4.624-12.235l.449-1.949 13.643 3.142-3.573 15.514Zm-11.031-2.541 6.626 1.527 2.496-10.837-4.951-1.14a54.957 54.957 0 0 1-4.171 10.45Zm36.928 2.799a8.946 8.946 0 0 1-2.81 5.428c-2.946 2.811-7.278 3.619-11.071 2.089-3.793-1.53-6.334-5.112-6.537-9.222-.013-1.727.139-3.457.534-5.172a22.398 22.398 0 0 1 1.509-4.948 11.508 11.508 0 0 1 3.437-4.586c1.522-1.086 3.294-1.827 5.162-2.095 1.615-.243 3.204-.37 4.835-.323a8.957 8.957 0 0 0 3.514-.997l2.046 3.057a11.269 11.269 0 0 1-5.033 2.248 39.505 39.505 0 0 0-4.365.596 6.98 6.98 0 0 0-5.275 3.834c.827-.384 1.715-.672 2.644-.787 4.074-.58 8.099 1.373 10.115 4.916a9.617 9.617 0 0 1 1.295 5.962Zm-5.93 2.042a4 4 0 0 0 .607-5.484 6.88 6.88 0 0 0-5.566-2.924 7.092 7.092 0 0 0-4.79 2.263c-.075.681-.111 1.37-.107 2.069a6.107 6.107 0 0 0 3.705 5.122 6.297 6.297 0 0 0 6.151-1.046Zm28.207-4.71c1.452 2.427 1.933 5.329 1.266 8.049-1.179 4.941-5.666 8.382-10.754 8.196-5.127-.196-9.359-3.921-10.17-8.951a10.714 10.714 0 0 1 6.845-11.723c4.799-1.768 10.152.121 12.813 4.429Zm-10.392 11.439a5.992 5.992 0 0 0 7.253-4.404 6.146 6.146 0 0 0-2.263-6.391c-2.007-1.448-4.687-1.572-6.788-.291-2.101 1.281-3.24 3.728-2.816 6.165a6.007 6.007 0 0 0 4.614 4.921Zm34.341-6.129c2.799 4.954 1.519 11.227-3.037 14.611a9.533 9.533 0 0 1-7.953 1.739 8.548 8.548 0 0 1-5.69-4.881l-2.262 9.823-4.405-1.015 6.221-27.013 4.405 1.015-.673 2.923c1.882-1.578 4.343-2.283 6.718-1.901 2.842.491 5.28 2.202 6.676 4.699Zm-5.848 10.598a5.448 5.448 0 0 0 2.649-3.659 5.571 5.571 0 0 0-.956-4.407 6.333 6.333 0 0 0-3.482-2.526 6.806 6.806 0 0 0-4.692.233 5.293 5.293 0 0 0-2.107 1.485l-1.247 5.418c.249.879.75 1.733 1.413 2.419a6.796 6.796 0 0 0 4.21 2.037 6.32 6.32 0 0 0 4.212-1ZM524.805 392.951l3.182.341-2.976 27.761-4.773-.512 2.247-20.96-2.597 1.331-2.202-4.219 7.119-3.742Zm23.496 17.524-.541 5.051-2.426-.26-.845 7.875-4.772-.512.844-7.875-10.858-1.164.426-3.977 13.24-14.672 4.096.439-1.59 14.835 2.426.26Zm-12.091-1.296 4.892.524.721-6.721-5.613 6.197Zm33.351-4.069 12.33 1.322-2.213 20.642-4.534-.486 1.701-15.87-3.38-.362a52.699 52.699 0 0 1-1.254 6.061 21.362 21.362 0 0 1-2.173 5.64 6.74 6.74 0 0 1-5.972 3.544l-.372-3.66c1.085-.367 2.05-1.108 2.642-2.131a18.286 18.286 0 0 0 1.564-4.459c.391-1.768.751-3.62 1.031-5.481.18-1.308.434-2.93.63-4.76Zm36.171 12.285c.011.645-.013 1.246-.082 1.882l-.029.279-.365 1.53-16.108-1.727c.054.247.108.494.197.785a6.653 6.653 0 0 0 2.642 3.502c.642.391 1.372.71 2.119.871.823.209 1.662.258 2.55.233a9.174 9.174 0 0 0 4.597-1.599l2.092 3a11.198 11.198 0 0 1-6.483 2.684c-1.183.155-2.381.067-3.526-.136a10.621 10.621 0 0 1-3.561-1.307c-2.235-1.286-3.865-3.351-4.691-5.773-.783-2.458-.74-5.108.196-7.462 1.829-4.672 6.628-7.416 11.53-6.609a10.579 10.579 0 0 1 8.922 9.847Zm-16.227-1.739 11.653 1.249c-.351-2.733-2.572-4.902-5.317-5.196-2.784-.299-5.414 1.35-6.336 3.947Zm35.79-4.692-.511 4.772-6.085-.652-1.697 15.83-4.494-.482 1.696-15.83-6.085-.652.512-4.773 16.664 1.787Zm34.253 6.608c1.732 2.238 2.555 5.061 2.217 7.841-.581 5.047-4.625 8.998-9.699 9.42-5.114.417-9.76-2.776-11.166-7.674a10.715 10.715 0 0 1 5.399-12.455c4.554-2.328 10.093-1.091 13.249 2.868Zm-8.953 12.598a5.994 5.994 0 0 0 6.676-5.239 6.147 6.147 0 0 0-3.01-6.075c-2.164-1.197-4.84-1.002-6.774.521-1.933 1.523-2.771 4.088-2.06 6.457a6.01 6.01 0 0 0 5.168 4.336Zm15.869-14.793 16.903 1.812-2.209 20.602-4.494-.482 1.697-15.829-7.915-.849-1.697 15.83-4.494-.482 2.209-20.602Zm42.415 4.547-2.213 20.641-4.534-.486 2.213-20.642 4.534.487Zm-9.897 16.519a6.445 6.445 0 0 1-5.794 2.637l-8.153-.874 2.208-20.602 4.494.482-.861 8.034c1.268.176 2.466.264 3.858.414 2.223.278 4.123 1.689 4.988 3.753a6.14 6.14 0 0 1-.74 6.156Zm-3.686-2.769a2 2 0 0 0 .355-1.812 2.065 2.065 0 0 0-1.502-1.368c-1.11-.159-2.462-.304-3.695-.437l-.414 3.858 3.62.388a1.71 1.71 0 0 0 1.636-.629Zm34.052-11.556-.512 4.772-6.085-.652-1.697 15.829-4.494-.481 1.697-15.83-6.085-.652.511-4.773 16.665 1.787Zm18.201 11.485-.413 3.858-.785 7.318-4.494-.482.188-1.75c-1.581 1.239-3.567 1.75-5.516 1.541a8.304 8.304 0 0 1-4.943-2.3c-1.498-1.407-2.292-3.383-2.274-5.433.019-2.05.988-3.957 2.613-5.231a8.51 8.51 0 0 1 5.074-1.548 10.73 10.73 0 0 1 5.842 1.792c-.054-.247-.144-.538-.233-.829a4.39 4.39 0 0 0-3.55-2.915 9.01 9.01 0 0 0-5.576.609l-2.088-3.04a10.228 10.228 0 0 1 8.578-2.339c1.618.294 3.153.982 4.407 2.042a8.822 8.822 0 0 1 2.693 4.15c.443 1.496.6 3.041.477 4.557Zm-10.265 5.698c1.808.395 3.693.074 5.173-.974l.332-3.102c-1.542-1.372-3.603-2.036-5.643-1.772-.932.061-1.81.37-2.558.973-.537.506-.773 1.205-.691 1.938.059 1.334 1.675 2.392 3.387 2.937Z"/>
    <g fill="#3478FF" clip-path="url(#b)">
      <path d="m779.687 331.648-5.824-14.903c-2.745-7.025-4.118-10.538-7.153-11.867-2.654-1.163-5.673-.259-11.087 1.822l-19.87 7.765c-5.391 2.141-8.223 3.524-9.385 6.178-1.33 3.036.043 6.548 2.788 13.573l5.824 14.903c2.745 7.025 4.118 10.537 7.153 11.867 3.035 1.33 6.548-.043 13.573-2.788l14.903-5.824c7.025-2.745 10.537-4.118 11.867-7.153 1.329-3.036-.043-6.548-2.789-13.573Z" opacity=".5"/>
      <path d="M735.266 313.223a4 4 0 0 1 2.27-5.181l12.419-4.854a4 4 0 0 1 5.181 2.27l.971 2.484a4 4 0 0 1-2.27 5.181l-12.418 4.854a4.001 4.001 0 0 1-5.182-2.27l-.971-2.484Z"/>
      <path fill-rule="evenodd" d="M737.714 332.308a2 2 0 0 1 1.135-2.591l1.242-.485a2 2 0 0 1 1.456 3.725l-1.242.486a2 2 0 0 1-2.591-1.135Zm8.693-3.397a2 2 0 0 1 1.135-2.591l16.145-6.309a2 2 0 0 1 1.456 3.726l-16.145 6.309a2 2 0 0 1-2.591-1.135Zm-5.296 12.09a2 2 0 0 1 1.135-2.591l1.242-.485a2 2 0 1 1 1.456 3.726l-1.242.485a2 2 0 0 1-2.591-1.135Zm8.694-3.397a2 2 0 0 1 1.134-2.591l16.145-6.309a2 2 0 1 1 1.456 3.726l-16.145 6.309a2 2 0 0 1-2.59-1.135Zm-5.296 12.09a2 2 0 0 1 1.134-2.591l1.242-.485a2 2 0 1 1 1.456 3.726l-1.242.485a2 2 0 0 1-2.59-1.135Zm8.693-3.397a2 2 0 0 1 1.135-2.591l16.144-6.309a2 2 0 1 1 1.456 3.726l-16.144 6.309a2 2 0 0 1-2.591-1.135Z" clip-rule="evenodd"/>
    </g>
    <path fill="#1E1E1E" d="m135.375 241.641 4.741.973-5.624 27.389-4.741-.974 2.381-11.598-11.754-2.413-2.382 11.598-4.702-.966 5.624-27.388 4.702.965-2.213 10.776 11.755 2.413 2.213-10.775Zm22.604 21.71-.781 3.801-1.48 7.209-4.428-.909.354-1.724c-1.692 1.082-3.717 1.401-5.637 1.007a8.306 8.306 0 0 1-4.701-2.762c-1.357-1.545-1.958-3.587-1.744-5.626.214-2.038 1.361-3.845 3.101-4.958a8.518 8.518 0 0 1 5.198-1.056 10.738 10.738 0 0 1 5.644 2.343c-.03-.251-.091-.549-.152-.848a4.39 4.39 0 0 0-3.255-3.24 9.012 9.012 0 0 0-5.609.073l-1.788-3.226a10.226 10.226 0 0 1 8.762-1.508c1.583.447 3.045 1.279 4.193 2.453a8.832 8.832 0 0 1 2.283 4.389 12.5 12.5 0 0 1 .04 4.582Zm-10.764 4.691c1.763.566 3.669.427 5.243-.475l.628-3.057c-1.405-1.513-3.393-2.37-5.449-2.302-.933-.029-1.836.194-2.639.723-.583.452-.884 1.126-.873 1.863-.069 1.333 1.439 2.541 3.09 3.248Zm30.341 6.066 2.703.555-1.866 9.091-4.467-.917.893-4.35-11.794-2.421-.893 4.349-4.428-.909 1.867-9.091 2.312.475c.103-.305.285-.595.428-.892 1.95-3.928 3.375-8.086 4.33-12.341l.403-1.959 13.714 2.816-3.202 15.594Zm-11.089-2.277 6.661 1.368 2.236-10.893-4.976-1.021a54.996 54.996 0 0 1-3.921 10.546Zm37.397-.079c-.05.643-.131 1.238-.26 1.865l-.057.275-.509 1.487-15.869-3.258c.03.251.06.502.121.801a6.65 6.65 0 0 0 2.295 3.738c.602.45 1.298.838 2.027 1.069.798.287 1.629.417 2.515.476a9.159 9.159 0 0 0 4.729-1.153l1.796 3.187a11.197 11.197 0 0 1-6.71 2.052c-1.193.041-2.376-.161-3.497-.473a10.598 10.598 0 0 1-3.419-1.641c-2.103-1.493-3.527-3.705-4.119-6.195-.544-2.521-.248-5.155.909-7.409 2.267-4.475 7.307-6.748 12.109-5.476a10.576 10.576 0 0 1 7.939 10.655Zm-15.986-3.283 11.48 2.357c-.088-2.754-2.091-5.125-4.795-5.68-2.743-.563-5.519.827-6.685 3.323Zm37.757 9.345 5.407 12.054-5.682-1.167-4.537-10.119-1.802 8.777-4.428-.909 1.802-8.777-8.118 7.521-5.682-1.167 9.679-8.956-5.112-11.299 5.721 1.174 4.212 9.318 1.665-8.111 4.428.909-1.673 8.15.008-.039 7.542-6.904 5.721 1.175-9.151 8.37Zm25.579-4.997 4.428.909-4.168 20.296-4.427-.909 1.665-8.11-7.797-1.601-1.666 8.11-4.427-.909 4.167-20.296 4.428.909-1.537 7.484 7.797 1.601 1.537-7.484Zm25.566 8.23c1.509 2.392 2.059 5.282 1.457 8.017-1.061 4.968-5.464 8.515-10.555 8.45-5.13-.074-9.45-3.697-10.381-8.706a10.714 10.714 0 0 1 6.564-11.883c4.755-1.882 10.151-.121 12.915 4.122Zm-10.117 11.684a5.992 5.992 0 0 0 7.146-4.576 6.146 6.146 0 0 0-2.415-6.335c-2.04-1.399-4.723-1.46-6.793-.129-2.07 1.33-3.149 3.804-2.668 6.23a6.008 6.008 0 0 0 4.73 4.81ZM145.667 426.368c6.131.909 10.989 5.657 12.066 11.763 1.077 6.105-1.863 12.229-7.313 15.181a13.385 13.385 0 0 1-16.318-2.93l2.795-2.808c3.135 2.574 7.526 3.059 11.138 1.203 2.899-1.527 4.825-4.425 5.064-7.676l-9.809 1.73-.882-5.003 9.533-1.681a9.623 9.623 0 0 0-6.963-4.702c-4.023-.469-7.99 1.45-10.054 4.942l-3.587-1.683a13.383 13.383 0 0 1 14.33-8.336Zm39.858 9.257a10.609 10.609 0 0 1-1.083 8.598 11.057 11.057 0 0 1-6.885 4.952l1.154 6.539-4.491.792-1.153-6.539c-2.904.349-5.844-.432-8.156-2.258-2.366-1.898-3.8-4.731-4.006-7.741-.167-3.017.929-6.013 3.066-8.177a9.978 9.978 0 0 1 3.752-2.449 7.968 7.968 0 0 1 1.619-.489l-1.257-7.13 4.49-.792 1.258 7.13c.551-.098 1.117-.116 1.643-.128 1.513.058 3.035.399 4.37 1.057 2.748 1.303 4.796 3.703 5.679 6.635Zm-20.079 4.069c.128 1.643.932 3.207 2.211 4.241a6.104 6.104 0 0 0 4.576 1.305l-2.057-11.66c-.236.041-.505.13-.774.218a5.353 5.353 0 0 0-2.125 1.309c-1.251 1.195-1.893 2.852-1.831 4.587Zm11.278 4.754-.04.007c2.547-.531 4.447-2.653 4.693-5.174.278-2.568-1.133-5.04-3.503-6.044a5.368 5.368 0 0 0-2.445-.503 4.945 4.945 0 0 0-.762.054l2.057 11.66Zm36.19-13.655a10.611 10.611 0 0 1-1.082 8.599 11.056 11.056 0 0 1-6.885 4.951l1.154 6.539-4.491.792-1.154-6.539c-2.903.35-5.843-.431-8.156-2.257-2.365-1.898-3.8-4.732-4.006-7.742-.166-3.017.93-6.013 3.067-8.177a9.998 9.998 0 0 1 3.751-2.449 8.04 8.04 0 0 1 1.62-.489l-1.258-7.13 4.491-.792 1.258 7.13c.551-.097 1.116-.116 1.642-.127 1.513.058 3.036.398 4.37 1.057 2.748 1.302 4.797 3.703 5.679 6.634Zm-20.078 4.07c.127 1.643.931 3.207 2.21 4.24a6.102 6.102 0 0 0 4.577 1.305l-2.057-11.66c-.237.042-.505.13-.774.218a5.34 5.34 0 0 0-2.125 1.309c-1.251 1.196-1.893 2.852-1.831 4.588Zm11.277 4.753-.039.007c2.546-.531 4.447-2.653 4.692-5.174.279-2.567-1.132-5.04-3.503-6.043a5.337 5.337 0 0 0-2.444-.503 4.835 4.835 0 0 0-.763.053l2.057 11.66Zm32.141-13.59c.19.616.333 1.2.444 1.831l.049.275.074 1.571-15.954 2.815c.121.222.241.444.408.699a6.653 6.653 0 0 0 3.51 2.631c.726.197 1.516.301 2.278.248.848-.028 1.668-.213 2.514-.484a9.173 9.173 0 0 0 3.972-2.813l2.843 2.301a11.194 11.194 0 0 1-5.483 4.379c-1.093.477-2.268.725-3.424.848a10.607 10.607 0 0 1-3.784-.267c-2.505-.614-4.644-2.146-6.11-4.243-1.435-2.144-2.129-4.702-1.884-7.223.459-4.995 4.308-8.964 9.242-9.55a10.577 10.577 0 0 1 11.305 6.982Zm-16.072 2.835 11.541-2.036c-1.095-2.528-3.832-3.995-6.55-3.515-2.757.486-4.827 2.801-4.991 5.551Zm29.104-3.591 10.607 9.015-5.987 1.056-8.976-7.596 1.563 8.863-4.451.785-3.593-20.365 4.452-.786 1.452 8.233-.007-.039 5.409-9.403 6.066-1.07-6.535 11.307Zm25.441-14.642.834 4.727-6.027 1.063 2.766 15.678-4.451.785-2.766-15.677-6.027 1.063-.834-4.727 16.505-2.912Zm16.807-2.965 4.687-.826 3.607 20.444-4.451.785-2.189-12.408-6.241 13.895-4.845.855-3.607-20.445 4.451-.785 2.217 12.566 6.371-14.081Zm24.671 7.021a6.292 6.292 0 0 1 1.091 6.185c-.802 2.132-2.635 3.714-4.834 4.143l-8.863 1.563-3.6-20.405 7.997-1.41c2.155-.218 4.3.663 5.618 2.38a5.892 5.892 0 0 1 .8 5.911.552.552 0 0 1-.091.178c.714.362 1.33.862 1.882 1.455Zm-7.573-5.163-3.348.591.57 3.23 3.309-.584c.584-.143 1.026-.628 1.205-1.228a1.658 1.658 0 0 0-.35-1.522 1.528 1.528 0 0 0-1.386-.487Zm4.314 9.719c.258-.614.218-1.298-.162-1.84a1.987 1.987 0 0 0-1.784-.904l-1.189.169-3.269.577.674 3.821 4.333-.765a1.708 1.708 0 0 0 1.397-1.058Zm18.193-18.563 4.451-.785 3.6 20.405-4.452.785-1.438-8.154-7.839 1.383 1.438 8.154-4.451.785-3.599-20.405 4.451-.785 1.327 7.524 7.839-1.383-1.327-7.524Zm26.8-1.762c2.284 1.668 3.86 4.152 4.307 6.916.843 5.01-1.945 9.929-6.702 11.743-4.797 1.821-10.147.044-12.858-4.271a10.716 10.716 0 0 1 1.727-13.465c3.729-3.501 9.394-3.85 13.526-.923Zm-5.104 14.588a5.991 5.991 0 0 0 4.959-6.886 6.145 6.145 0 0 0-4.578-5.001c-2.412-.549-4.928.382-6.363 2.382-1.434 1.999-1.527 4.696-.186 6.775a6.008 6.008 0 0 0 6.168 2.73Z"/>
    <path stroke="#FF6FC0" stroke-linecap="round" stroke-width="5" d="M537.836 120.442c-29-3.333-98.6-6.6-145 7-58 17-109.5 36-104.5 63s88 24 155 12 135.5-43.5 130.5-68-43-30-61-31c-14.4-.8-34-.333-42 0"/>
    <path stroke="#FFA17A" stroke-linecap="round" stroke-width="5" d="M764.5 431c-9.581-17.366-32.407-55.85-109.058-60.587-95.814-5.92-148.512 7.105-163.842 32.561-15.33 25.457 38.326 63.938 129.349 67.49 72.818 2.842 109.547-6.314 118.809-11.248"/>
    <path stroke="#000" stroke-linecap="round" stroke-width="5" d="M125.725 161.669c14.748-6.648 54.797-23.034 97.007-35.392 42.21-12.359 77.07-16.722 89.224-17.359"/>
    <path fill="#77A1F6" d="M602.043 53.912a2.5 2.5 0 0 0 .414 4.983l-.414-4.983ZM650.85 63.7l1.232-2.175-1.232 2.175Zm122.391-11.38 1.592-1.928-1.592 1.928Zm-6.687 59.846a2.5 2.5 0 0 0 2.817 2.137l22.291-3.057a2.499 2.499 0 1 0-.679-4.953l-19.815 2.717-2.717-19.815a2.5 2.5 0 1 0-4.953.68l3.056 22.291ZM602.457 58.894c5.052-.418 13.559-.57 22.5.357 8.996.933 18.138 2.928 24.66 6.625l2.465-4.35c-7.425-4.208-17.389-6.292-26.609-7.248-9.274-.961-18.093-.809-23.43-.366l.414 4.983Zm47.16 6.982c2.141 1.213 4.192 2.456 6.212 3.687 2.01 1.224 4.002 2.444 5.975 3.577 3.943 2.265 7.952 4.268 12.273 5.428 8.861 2.38 18.487 1.075 31.174-7.081l-2.704-4.206c-11.811 7.593-19.993 8.387-27.173 6.458-3.7-.993-7.27-2.747-11.08-4.935-1.904-1.093-3.833-2.274-5.864-3.511-2.02-1.23-4.13-2.51-6.348-3.767l-2.465 4.35Zm55.634 5.61c6.174-3.969 12.113-8.384 17.708-12.285 5.663-3.949 11.039-7.419 16.366-9.762 5.303-2.334 10.441-3.497 15.647-2.951 5.187.544 10.687 2.813 16.677 7.76l3.184-3.855c-6.595-5.447-12.993-8.212-19.339-8.878-6.328-.664-12.359.785-18.183 3.347-5.8 2.552-11.509 6.261-17.212 10.237-5.77 4.024-11.477 8.277-17.552 12.182l2.704 4.206Zm66.398-17.238c9.087 7.505 10.501 18.04 8.264 28.71-2.248 10.72-8.127 21.103-12.873 27.358l3.983 3.022c5.047-6.65 11.341-17.704 13.784-29.354 2.453-11.7 1.076-24.465-9.974-33.591l-3.184 3.855Z"/>
    <path fill="#46B2AC" d="M778.319 217.999a2.501 2.501 0 0 0 1.362 4.811l-1.362-4.811Zm119.952 88.659a2.5 2.5 0 0 0 3.512-.408l13.969-17.639a2.5 2.5 0 0 0-3.92-3.104l-12.417 15.679-15.679-12.416a2.5 2.5 0 1 0-3.104 3.92l17.639 13.968Zm-118.59-83.848c-.12.034-.079.016.321-.042.319-.047.775-.106 1.355-.169a78.317 78.317 0 0 1 4.775-.365c3.977-.188 9.34-.181 15.165.517 11.757 1.41 24.852 5.568 32.634 15.988l4.007-2.992c-9.015-12.071-23.818-16.494-36.046-17.96-6.166-.74-11.817-.745-15.997-.547a83.3 83.3 0 0 0-5.084.388c-.628.069-1.143.136-1.529.192a8.604 8.604 0 0 0-.963.179l1.362 4.811Zm54.25 15.929c8.237 11.029 12.479 21.85 12.258 30.229-.11 4.135-1.299 7.601-3.545 10.293-2.248 2.694-5.73 4.82-10.795 5.96l1.098 4.878c5.899-1.328 10.44-3.926 13.535-7.634 3.097-3.71 4.571-8.323 4.705-13.364.264-9.973-4.689-21.892-13.249-33.354l-4.007 2.992Zm-2.082 46.482c-4.911 1.106-8.989.333-12.182-1.532-3.223-1.883-5.71-4.981-7.204-8.781-3-7.635-1.84-17.746 5.037-25.163l-3.666-3.4c-8.251 8.9-9.689 21.064-6.024 30.392 1.84 4.682 5.001 8.736 9.335 11.269 4.364 2.55 9.749 3.456 15.802 2.093l-1.098-4.878ZM817.5 249.745c14.505-15.645 33.467-19.633 49.438-11.742l2.215-4.483c-18.277-9.03-39.568-4.164-55.319 12.825l3.666 3.4Zm49.438-11.742c16.054 7.931 23.966 24.905 26.951 43.987l4.94-.773c-3.09-19.747-11.481-38.708-29.676-47.697l-2.215 4.483Zm26.951 43.987c2.432 15.548 3.315 21.83 3.451 22.997l4.967-.577c-.15-1.287-1.051-7.678-3.478-23.193l-4.94.773Z"/>
    <path stroke="#77A1F6" stroke-linecap="round" stroke-width="5" d="M244 367.416c15.704 2.552 53.118 3.887 77.144-11.187 30.034-18.842 45.345-41.217 37.689-65.358-7.655-24.141-28.266-30.029-35.333-13.543-7.067 16.487 7.656 42.984 41.222 44.161 26.854.942 36.708-14.916 38.278-22.963"/>
    <path stroke="#FF6FC0" stroke-linecap="round" stroke-width="5" d="M166.561 480.01c13.487-5.424 43.086-15.752 53.589-13.673 13.128 2.599 20.607 11.201 40.659.927 20.053-10.273 24.941-18.058 44.074-17.187 15.307.696 35.621 1.961 43.865 2.506"/>
    <path fill="#3478FF" d="M408.943 84.772c14.721-.457 26.284-12.76 25.827-27.481-.457-14.72-12.761-26.283-27.481-25.826-14.721.456-26.284 12.76-25.827 27.48.457 14.721 12.761 26.284 27.481 25.827Z" opacity=".5"/>
    <path fill="#3478FF" d="M398.811 67.887a2 2 0 0 1 2.783-.502c1.986 1.378 4.355 2.14 6.877 2.061 2.521-.078 4.838-.984 6.735-2.483a2 2 0 1 1 2.48 3.137c-2.532 2.002-5.666 3.238-9.091 3.344-3.425.106-6.63-.933-9.282-2.773a2 2 0 0 1-.502-2.784ZM416.113 57.87c1.472-.046 2.61-1.873 2.541-4.08-.068-2.209-1.317-3.962-2.789-3.916-1.472.045-2.61 1.872-2.542 4.08.069 2.209 1.318 3.962 2.79 3.916ZM400.121 58.366c1.472-.045 2.609-1.873 2.541-4.08-.069-2.209-1.318-3.962-2.79-3.916-1.472.046-2.609 1.873-2.541 4.081.069 2.208 1.318 3.961 2.79 3.915Z"/>
    <g fill="#46B2AC" clip-path="url(#c)">
      <path d="m168.664 341.828-2.497-10.755c-.624-2.686-3.516-4.163-6.054-3.092l-12.728 5.373a2.22 2.22 0 0 1-3.022-1.527l-2.566-10.624a12.751 12.751 0 0 0-2.269-4.755c-.894-1.168-2.351-1.794-3.862-1.66l-.405.036a3.589 3.589 0 0 0-2.37 1.197 3.374 3.374 0 0 0-.823 2.714l.733 4.999a20.38 20.38 0 0 1 .129 4.805c-.214 2.341-1.147 4.535-2.19 6.641l-2.249 4.538a4.447 4.447 0 0 0 .052 4.05l11.736 22.233a4.44 4.44 0 0 0 5.654 2.022l11.421-4.821c8.552-3.61 13.336-12.65 11.31-21.374Z"/>
      <path fill-rule="evenodd" d="M119.127 343.113a2 2 0 0 1 2.625.874l14.04 26.598a3.298 3.298 0 1 1-5.955 2.822l-11.696-27.709a2 2 0 0 1 .986-2.585Z" clip-rule="evenodd" opacity=".5"/>
    </g>
    <g fill="#FF6FC0" clip-path="url(#d)">
      <path fill-rule="evenodd" d="M974.928 121.1c-2.958 1.223-5.386 4.06-10.24 9.734-4.855 5.674-7.282 8.511-8.032 11.623a13.331 13.331 0 0 0 .639 8.215c1.223 2.959 4.06 5.386 9.734 10.241l8.105 6.934c5.674 4.855 8.511 7.282 11.623 8.032 2.737.66 5.613.436 8.215-.639 2.959-1.223 5.388-4.06 10.238-9.734 4.86-5.674 7.28-8.511 8.03-11.623.66-2.737.44-5.613-.63-8.215-1.23-2.959-4.06-5.386-9.74-10.241l-8.103-6.934c-5.674-4.855-8.511-7.282-11.623-8.032a13.334 13.334 0 0 0-8.216.639Zm18.823 29.334a2 2 0 0 0-.536-3.964l-11.951 1.613-.073-3.479a2.001 2.001 0 0 0-3.999.085l.12 5.718a2.002 2.002 0 0 0 2.268 1.94l14.171-1.913Z" clip-rule="evenodd"/>
      <path d="M1005.75 123.854c9.55 8.172 14.33 12.259 14.76 17.765.22 2.848-.77 5.5-2.9 8.72l-5.8 6.775-39.857-34.101 5.798-6.775c2.85-2.608 5.318-3.992 8.166-4.214 5.506-.429 10.282 3.658 19.833 11.83Z" opacity=".5"/>
    </g>
    <g fill="#FFA17A" clip-path="url(#e)">
      <path d="M602.752 175.353c2.974-12.214 4.461-18.321 9.179-21.191 4.718-2.871 10.825-1.384 23.039 1.59 12.214 2.974 18.321 4.461 21.192 9.179 2.87 4.718 1.383 10.825-1.59 23.039-2.974 12.214-4.461 18.321-9.179 21.192-4.719 2.87-10.826 1.383-23.04-1.59-12.214-2.974-18.321-4.461-21.191-9.18-2.871-4.718-1.384-10.825 1.59-23.039Z" opacity=".5"/>
      <path d="m628.406 187.194 4.825 7.931c.499.821.749 1.231 1.08 1.473.442.323.994.458 1.534.374.406-.063.816-.313 1.637-.812.822-.5 1.232-.75 1.474-1.081.323-.441.458-.993.374-1.534-.063-.405-.313-.816-.812-1.637l-4.825-7.93 2.422-1.473c2.479-1.509 3.718-2.263 3.744-3.392.026-1.129-1.179-1.938-3.587-3.557l-8.033-5.4c-4.804-3.229-7.207-4.844-8.898-3.815-1.692 1.029-1.362 3.905-.702 9.656l1.102 9.616c.331 2.883.496 4.325 1.51 4.821 1.014.496 2.254-.258 4.733-1.766l2.422-1.474Z"/>
    </g>
  </g>
  <defs>
    <clipPath id="a">
      <path fill="#fff" d="M0 0h1120v483H0z"/>
    </clipPath>
    <clipPath id="b">
      <path fill="#fff" d="M712 312.295 771.61 289l23.295 59.61-59.61 23.295z"/>
    </clipPath>
    <clipPath id="c">
      <path fill="#fff" d="M102 322.888 160.962 298l24.889 58.962-58.963 24.888z"/>
    </clipPath>
    <clipPath id="d">
      <path fill="#fff" d="m984.906 99 48.63 41.607-41.607 48.63-48.63-41.607z"/>
    </clipPath>
    <clipPath id="e">
      <path fill="#fff" d="m605.141 143 62.183 15.14-15.14 62.184-62.183-15.14z"/>
    </clipPath>
  </defs>
</svg>